<?xml version="1.0"?>
<svg width="64" height="64" xmlns="http://www.w3.org/2000/svg" xmlns:svg="http://www.w3.org/2000/svg">
 <defs>
  <clipPath id="b">
   <rect height="64" id="svg_1" width="64"/>
  </clipPath>
 </defs>
 <g class="layer">
  <title>Layer 1</title>
  <g id="a">
   <path d="m733.43,-302.73l29.61,25.37l23.13,-14.25l0,-1.62l-52.74,-11.55l0,2.05z" fill="#c4c4c4" id="svg_2" transform="translate(-728.04 330.13)"/>
   <path d="m1212.37,-1122.25l29.69,25.1l23.11,-13.86l-30.02,-25.11l-22.78,13.87z" fill="#949494" id="svg_3" transform="translate(-1206.995 1147.886)"/>
   <path d="m751.22,-313.77l29.27,25.4l1.4,-0.74l-29.36,-25.48l-1.31,0.82z" fill="#e9bc29" id="svg_4" transform="translate(-730.836 330.744)"/>
   <path d="m751.22,-313.77l29.27,25.4l1.4,-0.74l-29.36,-25.48l-1.31,0.82z" fill="#e9bc29" id="svg_5" transform="translate(-737.836 334.744)"/>
  </g>
  <text fill="#aaffff" font-family="Sans-serif" font-size="24" id="svg_6" stroke="#000000" stroke-width="0" text-anchor="middle" transform="matrix(0.504839 0 0 0.504839 23.141 -0.697475)" x="-23.1" xml:space="preserve" y="121.57">thin</text>
 </g>
</svg>