<?xml version="1.0" encoding="utf-8"?>
<!-- Generator: Adobe Illustrator 27.8.1, SVG Export Plug-In . SVG Version: 6.00 Build 0)  -->
<svg version="1.1" id="图层_1" xmlns="http://www.w3.org/2000/svg" xmlns:xlink="http://www.w3.org/1999/xlink" x="0px" y="0px"
	 viewBox="0 0 64 64" style="enable-background:new 0 0 64 64;" xml:space="preserve">
<style type="text/css">
	.st0{clip-path:url(#SVGID_00000178899837169644104880000009704439472600995509_);}
	.st1{fill:#706428;}
	.st2{fill:#B47300;}
	.st3{fill:#61A2D3;}
	.st4{fill:#9A8A39;}
	.st5{fill:#E39C03;}
	.st6{fill:#7AC6FF;}
	.st7{fill:#4D4324;}
	.st8{fill:#755902;}
	.st9{fill:#748991;}
	.st10{fill:#8D5B03;}
	.st11{fill:#4A6068;}
	.st12{fill:#4E7989;}
	.st13{fill:#808080;}
	.st14{fill:#434343;}
	.st15{fill:#929191;}
	.st16{fill:#C3C2C2;}
	.st17{fill:#F69380;}
	.st18{fill:#F5C31E;}
	.st19{fill:#F9D789;}
	.st20{font-family:'Cities0.4-Regular';}
	.st21{font-size:13.9487px;}
	.st22{fill:#BAE1E4;}
	.st23{font-size:6.7422px;}
	.st24{clip-path:url(#SVGID_00000160178567133051056860000004623281093082028455_);}
	.st25{fill:#79C9CF;}
	.st26{fill:#FFFFFF;}
	.st27{fill:#D2ECFA;}
	.st28{display:none;fill:#F3E195;}
</style>
<g>
	<g>
		<defs>
			<rect id="SVGID_1_" width="64" height="64"/>
		</defs>
		<clipPath id="SVGID_00000180324377003457394450000003339075867187578300_">
			<use xlink:href="#SVGID_1_"  style="overflow:visible;"/>
		</clipPath>
		<g id="LargeRoad8lanes" style="clip-path:url(#SVGID_00000180324377003457394450000003339075867187578300_);">
			<path id="Path_2053" class="st1" d="M56.9,45.8l-7.6-7.7c0,0-4.3,2.8-4,3.2s9.3,9,9.3,9L56.9,45.8z"/>
			<path id="Path_2201" class="st2" d="M51.9,49.8l-7.6-7.7c0,0-4.3,2.8-4,3.2s9.3,9,9.3,9L51.9,49.8z"/>
			<path id="Path_2205" class="st3" d="M45.9,52.8l-7.6-7.7c0,0-4.3,2.8-4,3.2s9.3,9,9.3,9L45.9,52.8z"/>
			<path id="Path_2054" class="st4" d="M57.1,46.9l-7.8-7.7c0,0-2.2,0.8-1.9,1.2s8.6,7.9,8.6,7.9L57.1,46.9z"/>
			<path id="Path_2202" class="st5" d="M52.1,49.9l-7.8-7.7c0,0-2.2,0.8-1.9,1.2s8.6,7.9,8.6,7.9L52.1,49.9z"/>
			<path id="Path_2206" class="st6" d="M46.1,52.9l-7.8-7.7c0,0-2.2,0.8-1.9,1.2s8.6,7.9,8.6,7.9L46.1,52.9z"/>
			<path id="Path_2055" d="M50.4,46.4c0.5-1.1,1.4-2,2.5-2.4c1.8-0.5,2.2,0,2.2,0l-2-2l-5.5,1.6L50.4,46.4z"/>
			<path id="Path_2203" d="M45.4,50.4c0.5-1.1,1.4-2,2.5-2.4c1.8-0.5,2.2,0,2.2,0l-2-2l-5.5,1.6L45.4,50.4z"/>
			<path id="Path_2207" d="M39.4,53.4c0.5-1.1,1.4-2,2.5-2.4c1.8-0.5,2.2,0,2.2,0l-2-2l-5.5,1.6L39.4,53.4z"/>
			<g id="Path_2200" transform="translate(53.692 45.179) rotate(13)">
				<path class="st7" d="M2.6,4.4c-1,0-1.8-1-1.8-2.2C0.8,1,1.6,0,2.6,0s1.8,1,1.8,2.2S3.5,4.4,2.6,4.4z"/>
				<path class="st8" d="M2.6,0.6c-0.7,0-1.3,0.8-1.3,1.7C1.3,3.2,1.9,4,2.6,4s1.3-0.8,1.3-1.7S3.3,0.6,2.6,0.6 M2.6-0.4
					c1.3,0,2.3,1.2,2.3,2.7S3.9,5,2.6,5C1.3,5,0.3,3.8,0.3,2.3C0.3,0.8,1.3-0.4,2.6-0.4z"/>
			</g>
			<g id="Path_2204" transform="translate(48.692 49.179) rotate(13)">
				<path class="st9" d="M2.6,4.4c-1,0-1.8-1-1.8-2.2C0.8,1,1.6,0,2.6,0s1.8,1,1.8,2.2S3.5,4.4,2.6,4.4z"/>
				<path class="st10" d="M2.6,0.6c-0.7,0-1.3,0.8-1.3,1.7C1.3,3.2,1.9,4,2.6,4s1.3-0.8,1.3-1.7S3.3,0.6,2.6,0.6 M2.6-0.4
					c1.3,0,2.3,1.2,2.3,2.7S3.9,5,2.6,5C1.3,5,0.3,3.8,0.3,2.3C0.3,0.8,1.3-0.4,2.6-0.4z"/>
			</g>
			<g id="Path_2208" transform="translate(42.692 52.179) rotate(13)">
				<path class="st11" d="M2.6,4.4c-1,0-1.8-1-1.8-2.2C0.8,1,1.6,0,2.6,0s1.8,1,1.8,2.2S3.5,4.4,2.6,4.4z"/>
				<path class="st12" d="M2.6,0.6c-0.7,0-1.3,0.8-1.3,1.7C1.3,3.2,1.9,4,2.6,4s1.3-0.8,1.3-1.7S3.3,0.6,2.6,0.6 M2.6-0.4
					c1.3,0,2.3,1.2,2.3,2.7S3.9,5,2.6,5C1.3,5,0.3,3.8,0.3,2.3C0.3,0.8,1.3-0.4,2.6-0.4z"/>
			</g>
			<path id="Path_2191" class="st13" d="M47.2,44l11.3-6.7L47.2,44z"/>
			<path id="Path_2186" class="st14" d="M0,31.8l29.7,25.3l34-20.6V34L0,29.2V31.8z"/>
			<path id="Path_2192" class="st15" d="M0.1,29.1L30,54.2l34-20.1L34,9.5L0.1,29.1z"/>
			<path id="Path_2191-2" class="st13" d="M47.2,44l11.3-6.7L47.2,44z"/>
			<path id="Path_2281" class="st16" d="M4.3,26.7l30.3,24.7l1.2-0.7L5.2,26.3L4.3,26.7z"/>
			<path id="Path_2287" class="st16" d="M8.9,23.9l30.3,24.6l1.2-0.7L9.8,23.5L8.9,23.9z"/>
			<path id="Path_2289" class="st17" d="M14.4,20.8l30.3,24.7l10.2-6L24.1,15.1L14.4,20.8z"/>
			<path id="Path_2294" class="st18" d="M18.9,18.2l30.3,24.6l1.2-0.7L19.8,17.7L18.9,18.2z"/>
			<path id="Path_2301" class="st16" d="M28.7,12.5l30.2,24.7l1.2-0.7L29.5,12.1L28.7,12.5z"/>
		</g>
	</g>
</g>
<text transform="matrix(1 0 0 1 2.1173 12.5682)" class="st19 st20 st21">3+2 </text>
<text transform="matrix(1 0 0 1 2.976 60.2654)" class="st22 st20 st21">6u</text>
<text transform="matrix(1 0 0 1 27.251 7.5239)" class="st19 st20 st23">Lanes</text>
<g>
	<defs>
		<rect id="SVGID_00000001652325623543821760000015347971072313234054_" x="41.5" y="-0.8" width="21.4" height="21.4"/>
	</defs>
	<clipPath id="SVGID_00000178178250428502968100000004228578574002246530_">
		<use xlink:href="#SVGID_00000001652325623543821760000015347971072313234054_"  style="overflow:visible;"/>
	</clipPath>
	<g id="Bus_Stop_4" style="clip-path:url(#SVGID_00000178178250428502968100000004228578574002246530_);">
		<g id="InfoIconPublicTransport" transform="translate(19.047 14.05)">
			<path id="Rectangle_856" class="st25" d="M29.9-1.4L29.9-1.4c0.4,0,0.7,0.3,0.7,0.7v0.5c0,0.4-0.3,0.7-0.7,0.7h0
				c-0.4,0-0.7-0.3-0.7-0.7v-0.5C29.2-1.1,29.5-1.4,29.9-1.4z"/>
			<path id="Rectangle_1285" class="st25" d="M36.3-1.4L36.3-1.4c0.4,0,0.7,0.3,0.7,0.7v0.5c0,0.4-0.3,0.7-0.7,0.7h0
				c-0.4,0-0.7-0.3-0.7-0.7v-0.5C35.6-1.1,35.9-1.4,36.3-1.4z"/>
			<path id="Rectangle_857" class="st25" d="M29.8-10.1h6.7c0.6,0,1,0.4,1,1v7.8c0,0.2-0.1,0.3-0.3,0.3h-8c-0.2,0-0.3-0.1-0.3-0.3
				v-7.8C28.8-9.6,29.2-10.1,29.8-10.1z"/>
			<path id="Path_381" class="st26" d="M30.3-3.8c0.4,0,0.8,0.3,0.8,0.7c0,0.4-0.3,0.8-0.7,0.8c0,0,0,0,0,0c-0.4,0-0.8-0.3-0.8-0.7
				C29.6-3.4,29.9-3.7,30.3-3.8C30.3-3.8,30.3-3.8,30.3-3.8z"/>
			<path id="Path_382" class="st26" d="M36.1-3.8c0.4,0,0.8,0.3,0.8,0.7c0,0.4-0.3,0.8-0.7,0.8c0,0,0,0,0,0c-0.4,0-0.8-0.3-0.8-0.7
				C35.4-3.4,35.7-3.7,36.1-3.8C36.1-3.8,36.1-3.8,36.1-3.8z"/>
			<path id="Rectangle_861" class="st27" d="M29.9-8.3h6.4C36.7-8.3,37-8,37-7.6v2.3c0,0.4-0.3,0.7-0.7,0.7h-6.4
				c-0.4,0-0.7-0.3-0.7-0.7v-2.3C29.2-8,29.5-8.3,29.9-8.3z"/>
			<polygon id="Rectangle_869" class="st28" points="31.5,-9.2 35.6,-9.2 35.6,-9.2 			"/>
		</g>
	</g>
</g>
</svg>
