<?xml version="1.0" encoding="utf-8"?>
<!-- Generator: Adobe Illustrator 27.8.1, SVG Export Plug-In . SVG Version: 6.00 Build 0)  -->
<svg version="1.1" id="图层_1" xmlns="http://www.w3.org/2000/svg" xmlns:xlink="http://www.w3.org/1999/xlink" width="64px" height="64px"
	 viewBox="0 0 64 64" style="enable-background:new 0 0 64 64;" xml:space="preserve">
<style type="text/css">
	.st0{clip-path:url(#SVGID_00000101801388229085596120000013767243483982413696_);}
	.st1{fill:#706428;}
	.st2{fill:#B47300;}
	.st3{fill:#61A2D3;}
	.st4{fill:#9A8A39;}
	.st5{fill:#E39C03;}
	.st6{fill:#7AC6FF;}
	.st7{fill:#4D4324;}
	.st8{fill:#755902;}
	.st9{fill:#748991;}
	.st10{fill:#8D5B03;}
	.st11{fill:#4A6068;}
	.st12{fill:#4E7989;}
	.st13{fill:#808080;}
	.st14{fill:#434343;}
	.st15{fill:#D4D4D4;}
	.st16{fill:#929191;}
	.st17{fill:#716E6E;}
	.st18{fill:#F69380;}
	.st19{fill:#FFC916;}
	.st20{fill:#F9D789;}
	.st21{font-family:'Cities0.4-Regular';}
	.st22{font-size:13.9487px;}
	.st23{fill:#BAE1E4;}
	.st24{font-size:6.7422px;}
	.st25{clip-path:url(#SVGID_00000089558781908611635470000017344445146676891033_);}
	.st26{fill:#79C9CF;}
	.st27{fill:#FFFFFF;}
	.st28{fill:#D2ECFA;}
	.st29{display:none;fill:#F3E195;}
</style>
<g>
	<g>
		<defs>
			<rect id="SVGID_1_" width="64" height="64"/>
		</defs>
		<clipPath id="SVGID_00000000211675306814501910000003191744123409821874_">
			<use xlink:href="#SVGID_1_"  style="overflow:visible;"/>
		</clipPath>
		<g id="LargeRoad" style="clip-path:url(#SVGID_00000000211675306814501910000003191744123409821874_);">
			<path id="Path_2053" class="st1" d="M56.9,45.8l-7.6-7.7c0,0-4.3,2.8-4,3.2s9.3,9,9.3,9L56.9,45.8z"/>
			<path id="Path_2201" class="st2" d="M51.9,49.8l-7.6-7.7c0,0-4.3,2.8-4,3.2s9.3,9,9.3,9L51.9,49.8z"/>
			<path id="Path_2205" class="st3" d="M45.9,52.8l-7.6-7.7c0,0-4.3,2.8-4,3.2s9.3,9,9.3,9L45.9,52.8z"/>
			<path id="Path_2054" class="st4" d="M57.1,46.9l-7.8-7.7c0,0-2.2,0.8-1.9,1.2s8.6,7.9,8.6,7.9L57.1,46.9z"/>
			<path id="Path_2202" class="st5" d="M52.1,49.9l-7.8-7.7c0,0-2.2,0.8-1.9,1.2s8.6,7.9,8.6,7.9L52.1,49.9z"/>
			<path id="Path_2206" class="st6" d="M46.1,52.9l-7.8-7.7c0,0-2.2,0.8-1.9,1.2s8.6,7.9,8.6,7.9L46.1,52.9z"/>
			<path id="Path_2055" d="M50.4,46.4c0.5-1.1,1.4-2,2.5-2.4c1.8-0.5,2.2,0,2.2,0l-2-2l-5.5,1.6L50.4,46.4z"/>
			<path id="Path_2203" d="M45.4,50.4c0.5-1.1,1.4-2,2.5-2.4c1.8-0.5,2.2,0,2.2,0l-2-2l-5.5,1.6L45.4,50.4z"/>
			<path id="Path_2207" d="M39.4,53.4c0.5-1.1,1.4-2,2.5-2.4c1.8-0.5,2.2,0,2.2,0l-2-2l-5.5,1.6L39.4,53.4z"/>
			<g id="Path_2200" transform="translate(53.692 45.179) rotate(13)">
				<path class="st7" d="M2.6,4.4c-1,0-1.8-1-1.8-2.2C0.8,1,1.6,0,2.6,0s1.8,1,1.8,2.2S3.5,4.4,2.6,4.4z"/>
				<path class="st8" d="M2.6,0.6c-0.7,0-1.3,0.8-1.3,1.7C1.3,3.2,1.9,4,2.6,4s1.3-0.8,1.3-1.7S3.3,0.6,2.6,0.6 M2.6-0.4
					c1.3,0,2.3,1.2,2.3,2.7S3.9,5,2.6,5C1.3,5,0.3,3.8,0.3,2.3C0.3,0.8,1.3-0.4,2.6-0.4z"/>
			</g>
			<g id="Path_2204" transform="translate(48.692 49.179) rotate(13)">
				<path class="st9" d="M2.6,4.4c-1,0-1.8-1-1.8-2.2C0.8,1,1.6,0,2.6,0s1.8,1,1.8,2.2S3.5,4.4,2.6,4.4z"/>
				<path class="st10" d="M2.6,0.6c-0.7,0-1.3,0.8-1.3,1.7C1.3,3.2,1.9,4,2.6,4s1.3-0.8,1.3-1.7S3.3,0.6,2.6,0.6 M2.6-0.4
					c1.3,0,2.3,1.2,2.3,2.7S3.9,5,2.6,5C1.3,5,0.3,3.8,0.3,2.3C0.3,0.8,1.3-0.4,2.6-0.4z"/>
			</g>
			<g id="Path_2208" transform="translate(42.692 52.179) rotate(13)">
				<path class="st11" d="M2.6,4.4c-1,0-1.8-1-1.8-2.2C0.8,1,1.6,0,2.6,0s1.8,1,1.8,2.2S3.5,4.4,2.6,4.4z"/>
				<path class="st12" d="M2.6,0.6c-0.7,0-1.3,0.8-1.3,1.7C1.3,3.2,1.9,4,2.6,4s1.3-0.8,1.3-1.7S3.3,0.6,2.6,0.6 M2.6-0.4
					c1.3,0,2.3,1.2,2.3,2.7S3.9,5,2.6,5C1.3,5,0.3,3.8,0.3,2.3C0.3,0.8,1.3-0.4,2.6-0.4z"/>
			</g>
			<path id="Path_2191" class="st13" d="M47.2,44l11.3-6.7L47.2,44z"/>
			<path id="Path_2186" class="st14" d="M0,31.8l29.7,25.3l34-20.6V34L0,29.2V31.8z"/>
			<path id="Path_2190" class="st15" d="M8.1,24.5l24.1,28.2l25.1-14.8L27,13.4L8.1,24.5z"/>
			<path id="Path_2192" class="st16" d="M0.1,29.1L30,54.2L62.3,35L32.6,10.1L0.1,29.1z"/>
			<path id="Path_2215" class="st17" d="M0.1,29L30,54.1l2.5-1.2l-30-25.1L0.1,29z"/>
			<path id="Path_2216" class="st17" d="M31.6,10.7l29.6,25l2.7-1.6L34,9.2L31.6,10.7z"/>
			<path id="Path_2216_00000139253490370353178190000017849182459203402933_" class="st18" d="M11.1,22.6l30.5,24.7l5.8-3.4
				L17.2,19.1L11.1,22.6z"/>
			<path id="Path_2216_00000016755065631787040270000013299081642723907254_" class="st18" d="M18,18.7l30.6,24.5l5.6-3.4L23.5,15.4
				L18,18.7z"/>
			<path id="Path_2288" class="st19" d="M17.2,19.1l30.2,24.7l1.2-0.7L18,18.7L17.2,19.1z"/>
		</g>
	</g>
</g>
<path class="st17" d="M53.7,13.6"/>
<text transform="matrix(1 0 0 1 1.7315 11.6826)" class="st20 st21 st22">2</text>
<text transform="matrix(1 0 0 1 2.5902 59.3797)" class="st23 st21 st22">4u</text>
<text transform="matrix(1 0 0 1 11.0204 6.6383)" class="st20 st21 st24">Lanes</text>
<g>
	<defs>
		<rect id="SVGID_00000080916447487179450490000008495651109910369967_" x="41.1" y="-1.6" width="21.4" height="21.4"/>
	</defs>
	<clipPath id="SVGID_00000039092523859445730750000009784486335567261833_">
		<use xlink:href="#SVGID_00000080916447487179450490000008495651109910369967_"  style="overflow:visible;"/>
	</clipPath>
	<g id="Bus_Stop_4" style="clip-path:url(#SVGID_00000039092523859445730750000009784486335567261833_);">
		<g id="InfoIconPublicTransport" transform="translate(19.047 14.05)">
			<path id="Rectangle_856" class="st26" d="M29.5-2.3L29.5-2.3c0.4,0,0.7,0.3,0.7,0.7v0.5c0,0.4-0.3,0.7-0.7,0.7h0
				c-0.4,0-0.7-0.3-0.7-0.7v-0.5C28.9-2,29.2-2.3,29.5-2.3z"/>
			<path id="Rectangle_1285" class="st26" d="M35.9-2.3L35.9-2.3c0.4,0,0.7,0.3,0.7,0.7v0.5c0,0.4-0.3,0.7-0.7,0.7h0
				c-0.4,0-0.7-0.3-0.7-0.7v-0.5C35.2-2,35.5-2.3,35.9-2.3z"/>
			<path id="Rectangle_857" class="st26" d="M29.4-11h6.7c0.6,0,1,0.4,1,1v7.8c0,0.2-0.1,0.3-0.3,0.3h-8c-0.2,0-0.3-0.1-0.3-0.3V-10
				C28.4-10.5,28.9-11,29.4-11z"/>
			<path id="Path_381" class="st27" d="M29.9-4.6c0.4,0,0.8,0.3,0.8,0.7c0,0.4-0.3,0.8-0.7,0.8c0,0,0,0,0,0c-0.4,0-0.8-0.3-0.8-0.7
				C29.2-4.3,29.5-4.6,29.9-4.6C29.9-4.6,29.9-4.6,29.9-4.6z"/>
			<path id="Path_382" class="st27" d="M35.7-4.6c0.4,0,0.8,0.3,0.8,0.7c0,0.4-0.3,0.8-0.7,0.8c0,0,0,0,0,0c-0.4,0-0.8-0.3-0.8-0.7
				C35-4.3,35.3-4.6,35.7-4.6C35.7-4.6,35.7-4.6,35.7-4.6z"/>
			<path id="Rectangle_861" class="st28" d="M29.5-9.2h6.4c0.4,0,0.7,0.3,0.7,0.7v2.3c0,0.4-0.3,0.7-0.7,0.7h-6.4
				c-0.4,0-0.7-0.3-0.7-0.7v-2.3C28.9-8.9,29.2-9.2,29.5-9.2z"/>
			<polygon id="Rectangle_869" class="st29" points="31.1,-10.1 35.2,-10.1 35.2,-10.1 			"/>
		</g>
	</g>
</g>
</svg>
