<?xml version="1.0"?>
<svg width="64" height="64" xmlns="http://www.w3.org/2000/svg" xmlns:svg="http://www.w3.org/2000/svg">
 <defs>
  <clipPath id="b">
   <rect height="64" id="svg_1" width="64"/>
  </clipPath>
 </defs>
 <g class="layer">
  <title>Layer 1</title>
  <g id="a">
   <path d="m733.43,-302.73l29.61,25.37l23.13,-14.25l0,-1.62l-52.74,-11.55l0,2.05z" fill="#c4c4c4" id="svg_2" transform="translate(-728.04 330.13)"/>
   <path d="m735.87,-304.11l34.08,22.39l13.87,-8.21l-28.77,-25.8l-19.18,11.62z" fill="#d4d4d4" id="svg_3" transform="translate(-729.951 329.31)"/>
   <path d="m1224.4,-1129.66l29.87,25.1l10.9,-6.45l-30.01,-25.11l-10.76,6.46z" fill="#949494" id="svg_4" transform="translate(-1219.047 1155.002)"/>
   <path d="m1224.4,-1129.66l29.87,25.1l10.9,-6.45l-30.01,-25.11l-10.76,6.46z" fill="#949494" id="svg_5" transform="translate(-1206.995 1147.886)"/>
   <path d="m15735.84,2434.14l0.93,6.54l1.88,-1.05l6.6,6.08l3.01,-1.77l-6.47,-5.88l2.16,-1.24l-8.11,-2.68z" fill="#fff" id="svg_6" transform="translate(-15715.158 -2406.452)"/>
   <path d="m15735.84,2434.14l0.93,6.54l1.88,-1.05l6.6,6.08l3.01,-1.77l-6.47,-5.88l2.16,-1.24l-8.11,-2.68z" fill="#fff" id="svg_7" transform="translate(-15706.158 -2411.452)"/>
  </g>
  <text fill="#aaffff" font-family="Sans-serif" font-size="24" id="svg_8" stroke="#000000" stroke-width="0" text-anchor="middle" transform="matrix(0.504839 0 0 0.504839 23.141 -0.697475)" x="-22.79" xml:space="preserve" y="121.22">thin</text>
 </g>
</svg>