<?xml version="1.0"?>
<svg width="64" height="64" xmlns="http://www.w3.org/2000/svg" xmlns:svg="http://www.w3.org/2000/svg">
 <defs>
  <clipPath id="clip-Alley">
   <rect height="64" id="svg_1" width="64"/>
  </clipPath>
 </defs>
 <g class="layer">
  <title>Layer 1</title>
  <g clip-path="url(#clip-Alley)" id="Alley">
   <path d="m1192,-423.5l-6.59,-8.59s-4.62,2.21 -4.37,2.65s8.13,10.08 8.13,10.08l2.83,-4.14z" data-name="Path 2053" fill="#706428" id="Path_2053" transform="translate(-1075.633 610.44) rotate(-7)"/>
   <path d="m1192,-423.5l-6.59,-8.59s-4.62,2.21 -4.37,2.65s8.13,10.08 8.13,10.08l2.83,-4.14z" data-name="Path 2201" fill="#b47300" id="Path_2201" transform="translate(-1079.633 613.44) rotate(-7)"/>
   <path d="m1192,-423.5l-6.59,-8.59s-4.62,2.21 -4.37,2.65s8.13,10.08 8.13,10.08l2.83,-4.14z" data-name="Path 2205" fill="#61a2d3" id="Path_2205" transform="translate(-1083.633 616.44) rotate(-7)"/>
   <path d="m1193.07,-423.41l-6.83,-8.6s-2.31,0.51 -2.06,0.95s7.53,8.87 7.53,8.87l1.36,-1.22z" data-name="Path 2054" fill="#9a8a39" id="Path_2054" transform="translate(-1076.472 611.521) rotate(-7)"/>
   <path d="m1193.07,-423.41l-6.83,-8.6s-2.31,0.51 -2.06,0.95s7.53,8.87 7.53,8.87l1.36,-1.22z" data-name="Path 2202" fill="#e39c03" id="Path_2202" transform="translate(-1080.472 613.521) rotate(-7)"/>
   <path d="m1193.07,-423.41l-6.83,-8.6s-2.31,0.51 -2.06,0.95s7.53,8.87 7.53,8.87l1.36,-1.22z" data-name="Path 2206" fill="#7ac6ff" id="Path_2206" transform="translate(-1084.472 616.521) rotate(-7)"/>
   <path d="m1185.44,-423.67a4.27,4.27 0 0 1 2.52,-2.36c1.76,-0.49 2.24,0 2.24,0l-2.01,-1.97l-5.5,1.62l2.75,2.71z" data-name="Path 2055" fill="rgba(59,59,59,0.61)" id="Path_2055" transform="translate(-1135.99 469.025)"/>
   <path d="m1185.44,-423.67a4.27,4.27 0 0 1 2.52,-2.36c1.76,-0.49 2.24,0 2.24,0l-2.01,-1.97l-5.5,1.62l2.75,2.71z" data-name="Path 2203" fill="rgba(59,59,59,0.61)" id="Path_2203" transform="translate(-1139.99 472.025)"/>
   <path d="m1185.44,-423.67a4.27,4.27 0 0 1 2.52,-2.36c1.76,-0.49 2.24,0 2.24,0l-2.01,-1.97l-5.5,1.62l2.75,2.71z" data-name="Path 2207" fill="rgba(59,59,59,0.61)" id="Path_2207" transform="translate(-1143.99 475.025)"/>
   <g data-name="Path 2200" fill="#4d4324" id="Path_2200" transform="translate(52.692 44.179) rotate(13)">
    <path d="m2.56,4.45c-0.98,0 -1.78,-0.97 -1.78,-2.15c0,-1.19 0.8,-2.15 1.78,-2.15c0.98,0 1.78,0.96 1.78,2.15c0,1.18 -0.8,2.15 -1.78,2.15z" id="svg_2"/>
    <path d="m2.56,0.65c-0.69,0 -1.28,0.75 -1.28,1.65c0,0.89 0.59,1.65 1.28,1.65c0.7,0 1.28,-0.76 1.28,-1.65c0,-0.9 -0.58,-1.65 -1.28,-1.65m0,-1c1.26,0 2.28,1.18 2.28,2.65c0,1.46 -1.02,2.65 -2.28,2.65c-1.26,0 -2.28,-1.19 -2.28,-2.65c0,-1.47 1.02,-2.65 2.28,-2.65z" fill="#755902" id="svg_3"/>
   </g>
   <g data-name="Path 2204" fill="#748991" id="Path_2204" transform="translate(48.692 47.179) rotate(13)">
    <path d="m2.56,4.45c-0.98,0 -1.78,-0.97 -1.78,-2.15c0,-1.19 0.8,-2.15 1.78,-2.15c0.98,0 1.78,0.96 1.78,2.15c0,1.18 -0.8,2.15 -1.78,2.15z" id="svg_4"/>
    <path d="m2.56,0.65c-0.69,0 -1.28,0.75 -1.28,1.65c0,0.89 0.59,1.65 1.28,1.65c0.7,0 1.28,-0.76 1.28,-1.65c0,-0.9 -0.58,-1.65 -1.28,-1.65m0,-1c1.26,0 2.28,1.18 2.28,2.65c0,1.46 -1.02,2.65 -2.28,2.65c-1.26,0 -2.28,-1.19 -2.28,-2.65c0,-1.47 1.02,-2.65 2.28,-2.65z" fill="#8d5b03" id="svg_5"/>
   </g>
   <g data-name="Path 2208" fill="#4a6068" id="Path_2208" transform="translate(44.692 50.179) rotate(13)">
    <path d="m2.56,4.45c-0.98,0 -1.78,-0.97 -1.78,-2.15c0,-1.19 0.8,-2.15 1.78,-2.15c0.98,0 1.78,0.96 1.78,2.15c0,1.18 -0.8,2.15 -1.78,2.15z" id="svg_6"/>
    <path d="m2.56,0.65c-0.69,0 -1.28,0.75 -1.28,1.65c0,0.89 0.59,1.65 1.28,1.65c0.7,0 1.28,-0.76 1.28,-1.65c0,-0.9 -0.58,-1.65 -1.28,-1.65m0,-1c1.26,0 2.28,1.18 2.28,2.65c0,1.46 -1.02,2.65 -2.28,2.65c-1.26,0 -2.28,-1.19 -2.28,-2.65c0,-1.47 1.02,-2.65 2.28,-2.65z" fill="#4e7989" id="svg_7"/>
   </g>
   <path d="m1249.1,-1108.87l11.31,-6.69l-11.31,6.69z" data-name="Path 2191" fill="gray" id="Path_2191" transform="translate(-1201.926 1150.895)"/>
   <path d="m733.5,-301.47l28.75,24.64l12.48,-8.96l0,-2.72l-41.23,-15.91l0,2.95z" data-name="Path 2283" fill="#434343" id="Path_2283" transform="translate(-722.122 327.055)"/>
   <path d="m11.39,22.76l28.82,24.49l12.38,-8.65l-28.39,-24.66l-12.81,8.82z" data-name="Path 2282" fill="#7f7f7f" id="svg_34"/>
   <path d="m14.31,20.5l29,24.67l6.64,-4.55l-28.85,-24.57l-6.79,4.44z" data-name="Path 2282" fill="#bfbfbf" id="Path_2282"/>
  </g>
  <text fill="#aaffff" font-family="Sans-serif" font-size="24" font-weight="bold" id="svg_11" stroke-width="0" text-anchor="middle" transform="matrix(0.539213 0 0 0.609831 0.963212 -1.20126)" x="16.85" xml:space="preserve" y="96.39">1U</text>
  <g id="svg_8">
   <g id="svg_9">
    <path class="st1" d="m57.28,24.22c0.13,0 0.2,0 0.33,-0.07c0.6,-0.2 0.93,-0.8 0.73,-1.4l-1.6,-5.67c-0.07,-0.2 -0.2,-0.4 -0.4,-0.6l-2.67,-2.14c0,0 0,-0.07 0,-0.07l0.6,-4.6l1.2,1.73c0.13,0.13 0.27,0.27 0.4,0.33l3.74,1.53c0.47,0.2 1,-0.07 1.2,-0.53c0.2,-0.47 -0.07,-1 -0.53,-1.2l-3.47,-1.47l-2.47,-3.54c-0.13,-0.13 -0.27,-0.27 -0.4,-0.33c1.27,-0.2 2.27,-1.33 2.27,-2.74c0,-1.53 -1.2,-2.74 -2.74,-2.74c-1.47,0 -2.74,1.2 -2.74,2.74c0,1.07 0.6,1.93 1.47,2.4c0,0 0,0 0,0l-0.13,0c-0.2,0 -0.33,0 -0.53,0.07l-4.07,2c-0.27,0.13 -0.4,0.33 -0.47,0.6c-0.6,1.87 -1.27,3.94 -1.4,4.34c-0.2,0.4 -0.13,0.93 0.27,1.2c0.13,0.13 0.33,0.2 0.53,0.2c0.27,0 0.53,-0.13 0.73,-0.4c0.13,-0.13 0.27,-0.33 1.53,-4.4l2.2,-1.07l-0.67,5.4c0,0.13 0,0.27 0,0.4l-1.4,4.6l-3.2,3.07c-0.47,0.4 -0.47,1.13 -0.07,1.6c0.2,0.27 0.53,0.33 0.8,0.33c0.27,0 0.53,-0.13 0.73,-0.33l3.47,-3.34c0.13,-0.13 0.27,-0.33 0.33,-0.53l1.07,-3.87l2.74,2.2l1.47,5.34c0.2,0.6 0.67,0.93 1.13,0.93" fill="#aad4ff" id="svg_10"/>
   </g>
  </g>
  <g clip-path="url(#clip-Alley)" id="svg_12" transform="matrix(1 0 0 1 0 0)">1U</g>
 </g>
</svg>