<?xml version="1.0"?>
<svg width="64" height="64" xmlns="http://www.w3.org/2000/svg" xmlns:svg="http://www.w3.org/2000/svg">
 <defs>
  <clipPath id="clip-SmallRoadOneway1lane">
   <rect height="64" id="svg_1" width="64"/>
  </clipPath>
 </defs>
 <g class="layer">
  <title>Layer 1</title>
  <g clip-path="url(#clip-SmallRoadOneway1lane)" id="SmallRoadOneway1lane">
   <path d="m1192,-423.5l-6.59,-8.59s-4.62,2.21 -4.37,2.65s8.13,10.08 8.13,10.08l2.83,-4.14z" data-name="Path 2053" fill="#706428" id="Path_2053" transform="translate(-1075.633 610.44) rotate(-7)"/>
   <path d="m1192,-423.5l-6.59,-8.59s-4.62,2.21 -4.37,2.65s8.13,10.08 8.13,10.08l2.83,-4.14z" data-name="Path 2201" fill="#b47300" id="Path_2201" transform="translate(-1080.633 614.44) rotate(-7)"/>
   <path d="m1192,-423.5l-6.59,-8.59s-4.62,2.21 -4.37,2.65s8.13,10.08 8.13,10.08l2.83,-4.14z" data-name="Path 2205" fill="#61a2d3" id="Path_2205" transform="translate(-1086.633 617.44) rotate(-7)"/>
   <path d="m1193.07,-423.41l-6.83,-8.6s-2.31,0.51 -2.06,0.95s7.53,8.87 7.53,8.87l1.36,-1.22z" data-name="Path 2054" fill="#9a8a39" id="Path_2054" transform="translate(-1076.472 611.521) rotate(-7)"/>
   <path d="m1193.07,-423.41l-6.83,-8.6s-2.31,0.51 -2.06,0.95s7.53,8.87 7.53,8.87l1.36,-1.22z" data-name="Path 2202" fill="#e39c03" id="Path_2202" transform="translate(-1081.472 614.521) rotate(-7)"/>
   <path d="m1193.07,-423.41l-6.83,-8.6s-2.31,0.51 -2.06,0.95s7.53,8.87 7.53,8.87l1.36,-1.22z" data-name="Path 2206" fill="#7ac6ff" id="Path_2206" transform="translate(-1087.472 617.521) rotate(-7)"/>
   <path d="m1185.44,-423.67a4.27,4.27 0 0 1 2.52,-2.36c1.76,-0.49 2.24,0 2.24,0l-2.01,-1.97l-5.5,1.62l2.75,2.71z" data-name="Path 2055" fill="rgba(59,59,59,0.61)" id="Path_2055" transform="translate(-1135.99 469.025)"/>
   <path d="m1185.44,-423.67a4.27,4.27 0 0 1 2.52,-2.36c1.76,-0.49 2.24,0 2.24,0l-2.01,-1.97l-5.5,1.62l2.75,2.71z" data-name="Path 2203" fill="rgba(59,59,59,0.61)" id="Path_2203" transform="translate(-1140.99 473.025)"/>
   <path d="m1185.44,-423.67a4.27,4.27 0 0 1 2.52,-2.36c1.76,-0.49 2.24,0 2.24,0l-2.01,-1.97l-5.5,1.62l2.75,2.71z" data-name="Path 2207" fill="rgba(59,59,59,0.61)" id="Path_2207" transform="translate(-1146.99 476.025)"/>
   <g data-name="Path 2200" fill="#4d4324" id="Path_2200" transform="translate(52.692 44.179) rotate(13)">
    <path d="m2.56,4.45c-0.98,0 -1.78,-0.97 -1.78,-2.15c0,-1.19 0.8,-2.15 1.78,-2.15c0.98,0 1.78,0.96 1.78,2.15c0,1.18 -0.8,2.15 -1.78,2.15z" id="svg_2"/>
    <path d="m2.56,0.65c-0.69,0 -1.28,0.75 -1.28,1.65c0,0.89 0.59,1.65 1.28,1.65c0.7,0 1.28,-0.76 1.28,-1.65c0,-0.9 -0.58,-1.65 -1.28,-1.65m0,-1c1.26,0 2.28,1.18 2.28,2.65c0,1.46 -1.02,2.65 -2.28,2.65c-1.26,0 -2.28,-1.19 -2.28,-2.65c0,-1.47 1.02,-2.65 2.28,-2.65z" fill="#755902" id="svg_3"/>
   </g>
   <g data-name="Path 2204" fill="#748991" id="Path_2204" transform="translate(47.692 48.179) rotate(13)">
    <path d="m2.56,4.45c-0.98,0 -1.78,-0.97 -1.78,-2.15c0,-1.19 0.8,-2.15 1.78,-2.15c0.98,0 1.78,0.96 1.78,2.15c0,1.18 -0.8,2.15 -1.78,2.15z" id="svg_4"/>
    <path d="m2.56,0.65c-0.69,0 -1.28,0.75 -1.28,1.65c0,0.89 0.59,1.65 1.28,1.65c0.7,0 1.28,-0.76 1.28,-1.65c0,-0.9 -0.58,-1.65 -1.28,-1.65m0,-1c1.26,0 2.28,1.18 2.28,2.65c0,1.46 -1.02,2.65 -2.28,2.65c-1.26,0 -2.28,-1.19 -2.28,-2.65c0,-1.47 1.02,-2.65 2.28,-2.65z" fill="#8d5b03" id="svg_5"/>
   </g>
   <g data-name="Path 2208" fill="#4a6068" id="Path_2208" transform="translate(41.692 51.179) rotate(13)">
    <path d="m2.56,4.45c-0.98,0 -1.78,-0.97 -1.78,-2.15c0,-1.19 0.8,-2.15 1.78,-2.15c0.98,0 1.78,0.96 1.78,2.15c0,1.18 -0.8,2.15 -1.78,2.15z" id="svg_6"/>
    <path d="m2.56,0.65c-0.69,0 -1.28,0.75 -1.28,1.65c0,0.89 0.59,1.65 1.28,1.65c0.7,0 1.28,-0.76 1.28,-1.65c0,-0.9 -0.58,-1.65 -1.28,-1.65m0,-1c1.26,0 2.28,1.18 2.28,2.65c0,1.46 -1.02,2.65 -2.28,2.65c-1.26,0 -2.28,-1.19 -2.28,-2.65c0,-1.47 1.02,-2.65 2.28,-2.65z" fill="#4e7989" id="svg_7"/>
   </g>
   <path d="m1249.1,-1108.87l11.31,-6.69l-11.31,6.69z" data-name="Path 2191" fill="gray" id="Path_2191" transform="translate(-1202.926 1151.895)"/>
   <path d="m7.12,26.71l29.75,25.44l17.74,-11.49l0.21,-1.69l-31.72,-23.67l-16.19,9.15l0.21,2.26z" data-name="Path 2186" fill="#434343" id="Path_2186"/>
   <path d="m11.85,21.75l30.08,24.96l7.69,-4.67l-28.61,-25.52l-9.16,5.23z" data-name="Path 2192" fill="#929191" id="Path_2192"/>
   <path d="m1265.17,-1111.01l-30.02,-25.12l30.02,25.12z" data-name="Path 2193" fill="#929191" id="Path_2193" transform="translate(-1206.995 1147.886)"/>
   <path d="m6.87,24.44l30.28,25.38l4.94,-3.01l-30.22,-24.97l-5,2.61z" data-name="Path 2215" fill="#716e6e" id="Path_2215"/>
   <path d="m19.88,17.16l29.87,25.1l5.24,-3.31l-30.3,-24.49l-4.82,2.7z" data-name="Path 2216" fill="#716e6e" id="Path_2216"/>
   <path d="m15735.84,2434.14l0.93,6.54l1.88,-1.05l6.6,6.08l3.01,-1.77l-6.47,-5.88l2.16,-1.24l-8.11,-2.68z" data-name="Path 1060" fill="#fff" id="Path_1060" transform="translate(-15711.275 -2408.79)"/>
  </g>
 </g>
</svg>