<?xml version="1.0"?>
<svg width="64" height="64" xmlns="http://www.w3.org/2000/svg" xmlns:svg="http://www.w3.org/2000/svg">
 <defs>
  <clipPath id="clip-LargeRoad8lanes">
   <rect height="64" id="svg_1" width="64"/>
  </clipPath>undefined</defs>
 <g class="layer">
  <title>Layer 1</title>
  <polyline fill="none" id="svg_17" opacity="0.5" points="9.03616 5.97235 8.86219 6.96549 8.69062 7.86132 8.61571 8.6791 8.46874 9.5976" stroke-linecap="round"/>
  <g id="svg_2" transform="matrix(1 0 0 1 0 0)">
   <path d="m-9.1,33.92l29.71,25.31l34.04,-20.61l0.35,-2.6l-64.1,-4.69l0,2.59z" fill="#c4c4c4" id="svg_3"/>
   <path d="m727.9,-302.72l24.05,28.18l25.13,-14.78l-30.23,-24.5l-18.95,11.1z" fill="#d4d4d4" id="svg_4" transform="translate(-728.951 329.31)"/>
   <path d="m7.69,24.03l29.71,25.31l34.04,-20.61l0.35,-2.6l-64.1,-4.69l0,2.59z" fill="#c4c4c4" id="svg_5"/>
   <path d="m8.27,21.07l29.87,25.1l33.88,-20.16l-29.7,-24.86l-34.05,19.92z" fill="#929191" id="svg_6"/>
   <path d="m-9.06,31.22l29.87,25.1l33.88,-20.16l-29.7,-24.86l-34.05,19.92z" fill="#929191" id="svg_7"/>
   <path d="m15810.87,3493.56l30.41,24.87l1.23,-0.69l-30.76,-24.62l-0.88,0.44z" fill="#d4d4d4" id="svg_8" transform="translate(-15811.9 -3467.12)"/>
   <path d="m15811.23,3493.52l30.29,24.65l1.23,-0.69l-30.64,-24.4l-0.88,0.44z" fill="#d4d4d4" id="svg_9" transform="translate(-15806.7 -3470.32)"/>
   <path d="m15811.19,3493.42l30.23,24.7l1.23,-0.69l-30.58,-24.44l-0.88,0.43z" fill="#d4d4d4" id="svg_10" transform="translate(-15801.2 -3473.41)"/>
   <path d="m16.1,16.55l30.2,24.65l1.23,-0.69l-30.55,-24.4l-0.88,0.44z" fill="#d4d4d4" id="svg_11"/>
   <path d="m15726.71,2436.26l0.76,4.97l1.53,-0.8l5.36,4.62l2.45,-1.34l-5.26,-4.47l1.75,-0.95l-6.59,-2.03z" fill="#fff" id="svg_12" transform="translate(-15722.1 -2400.36)"/>
   <path d="m15726.71,2436.26l0.76,4.97l1.53,-0.8l5.36,4.62l2.45,-1.34l-5.26,-4.47l1.75,-0.95l-6.59,-2.03z" fill="#fff" id="svg_13" transform="translate(-15715.1 -2404.13)"/>
   <path d="m15726.71,2436.26l0.76,4.97l1.53,-0.8l5.36,4.62l2.45,-1.34l-5.26,-4.47l1.75,-0.95l-6.59,-2.03z" fill="#fff" id="svg_14" transform="translate(-15708.9 -2407.6)"/>
   <path d="m15726.71,2436.26l0.76,4.97l1.53,-0.8l5.36,4.62l2.45,-1.34l-5.26,-4.47l1.75,-0.95l-6.59,-2.03z" fill="#fff" id="svg_15" transform="translate(-15703.2 -2410.94)"/>
   <path d="m29.54,21.6l0.76,4.97l1.53,-0.8l5.36,4.62l2.45,-1.34l-5.26,-4.47l1.75,-0.95l-6.59,-2.03z" fill="#fff" id="svg_16"/>
   <path d="m22.29,12.76l30.2,24.65l1.23,-0.69l-30.55,-24.4l-0.88,0.44z" fill="#d4d4d4" id="svg_20"/>
   <path d="m35.76,18.2l0.76,4.97l1.53,-0.8l5.36,4.62l2.45,-1.34l-5.26,-4.47l1.75,-0.95l-6.59,-2.03z" fill="#fff" id="svg_21"/>
   <path d="m28.68,9.35l30.2,24.65l1.23,-0.69l-30.55,-24.4l-0.88,0.44z" fill="#d4d4d4" id="svg_22"/>
   <path d="m42.27,14.66l0.76,4.97l1.53,-0.8l5.36,4.62l2.45,-1.34l-5.26,-4.47l1.75,-0.95l-6.59,-2.03z" fill="#fff" id="svg_23"/>
   <path d="m34.94,5.49l30.2,24.65l1.23,-0.69l-30.55,-24.4l-0.88,0.44z" fill="#d4d4d4" id="svg_24"/>
   <path d="m48.81,11.2l0.76,4.97l1.53,-0.8l5.36,4.62l2.45,-1.34l-5.26,-4.47l1.75,-0.95l-6.59,-2.03z" fill="#fff" id="svg_25"/>
  </g>
  <text fill="#ffd4aa" font-family="Sans-serif" font-size="24" font-weight="bold" id="svg_18" stroke-width="0" text-anchor="middle" transform="matrix(0.539213 0 0 0.609831 0.963212 -1.20126)" x="15.29" xml:space="preserve" y="24.55">8</text>
  <text fill="#ffd4aa" font-family="Sans-serif" font-size="11" font-weight="normal" id="svg_19" stroke-width="0" text-anchor="middle" transform="matrix(0.774676 0 0 0.766501 3.36502 -0.988836)" x="28.24" xml:space="preserve" y="13.51">lane</text>
  <text fill="#aaffff" font-family="Sans-serif" font-size="24" font-weight="bold" id="svg_35" stroke-width="0" text-anchor="middle" transform="matrix(0.539213 0 0 0.609831 0.963212 -1.20126)" x="26.05" xml:space="preserve" y="100.33">4.5U</text>
 </g>
</svg>