<?xml version="1.0"?>
<svg width="64" height="64" xmlns="http://www.w3.org/2000/svg" xmlns:svg="http://www.w3.org/2000/svg">
 <defs>
  <clipPath id="clip-HighwayTwoway4lanes_">
   <rect height="64" id="svg_1" width="64"/>
  </clipPath>
 </defs>
 <g class="layer">
  <title>Layer 1</title>
  <g clip-path="url(#clip-HighwayTwoway4lanes_)" data-name="HighwayTwoway4lanes " id="HighwayTwoway4lanes_">
   <path d="m733.43,-302.73l29.61,25.37l23.13,-14.25l0,-1.62l-52.74,-11.55l0,2.05z" data-name="Path 2186" fill="#c4c4c4" id="Path_2186" transform="translate(-728.04 330.13)"/>
   <path d="m1212.37,-1122.25l29.69,25.1l23.11,-13.86l-30.02,-25.11l-22.78,13.87z" data-name="Path 2193" fill="#949494" id="Path_2193" transform="translate(-1206.995 1147.886)"/>
   <path d="m751.22,-313.77l29.27,25.4l1.4,-0.74l-29.36,-25.48l-1.31,0.82z" data-name="Path 2190" fill="#e9bc29" id="Path_2190" transform="translate(-734.836 332.744)"/>
   <path d="m751.79,-314.19l29.26,25.4l1.41,-0.75l-29.36,-25.48l-1.31,0.83z" data-name="Path 2946" fill="#e9bc29" id="Path_2946" transform="translate(-729.836 329.744)"/>
   <path d="m750.4,-313.33l29.26,25.4l1.41,-0.74l-29.36,-25.48l-1.31,0.82z" data-name="Path 2947" fill="#e9bc29" id="Path_2947" transform="translate(-739.836 335.744)"/>
  </g>
  <text fill="#aaffff" font-family="Sans-serif" font-size="24" id="svg_2" stroke="#000000" stroke-width="0" text-anchor="middle" transform="matrix(0.504839 0 0 0.504839 23.141 -0.697475)" x="-22.79" xml:space="preserve" y="121.42">thin</text>
 </g>
</svg>