<?xml version="1.0" encoding="utf-8"?>
<!-- Generator: Adobe Illustrator 27.8.1, SVG Export Plug-In . SVG Version: 6.00 Build 0)  -->
<svg version="1.1" id="图层_1" xmlns="http://www.w3.org/2000/svg" xmlns:xlink="http://www.w3.org/1999/xlink" x="0px" y="0px"
	 viewBox="0 0 64 64" style="enable-background:new 0 0 64 64;" xml:space="preserve">
<style type="text/css">
	.st0{clip-path:url(#SVGID_00000149341416657231556250000009736051212897728154_);}
	.st1{fill:#706428;}
	.st2{fill:#B47300;}
	.st3{fill:#61A2D3;}
	.st4{fill:#9A8A39;}
	.st5{fill:#E39C03;}
	.st6{fill:#7AC6FF;}
	.st7{fill:#4D4324;}
	.st8{fill:#755902;}
	.st9{fill:#748991;}
	.st10{fill:#8D5B03;}
	.st11{fill:#4A6068;}
	.st12{fill:#4E7989;}
	.st13{fill:#808080;}
	.st14{fill:#434343;}
	.st15{fill:#929191;}
	.st16{fill:#C3C2C2;}
	.st17{fill:#F69380;}
	.st18{fill:#F5C31E;}
	.st19{fill:#F9D789;}
	.st20{font-family:'Cities0.4-Regular';}
	.st21{font-size:13.9487px;}
	.st22{fill:#BAE1E4;}
	.st23{font-size:6.7422px;}
	.st24{clip-path:url(#SVGID_00000179614144848926943410000015648343253349744052_);}
	.st25{fill:#79C9CF;}
	.st26{fill:#FFFFFF;}
	.st27{fill:#D2ECFA;}
	.st28{display:none;fill:#F3E195;}
</style>
<g>
	<g>
		<defs>
			<rect id="SVGID_1_" width="64" height="64"/>
		</defs>
		<clipPath id="SVGID_00000003806923912353437830000005324467428796885156_">
			<use xlink:href="#SVGID_1_"  style="overflow:visible;"/>
		</clipPath>
		<g id="LargeRoad8lanes" style="clip-path:url(#SVGID_00000003806923912353437830000005324467428796885156_);">
			<path id="Path_2053" class="st1" d="M56.9,45.8l-7.6-7.7c0,0-4.3,2.8-4,3.2s9.3,9,9.3,9L56.9,45.8z"/>
			<path id="Path_2201" class="st2" d="M51.9,49.8l-7.6-7.7c0,0-4.3,2.8-4,3.2s9.3,9,9.3,9L51.9,49.8z"/>
			<path id="Path_2205" class="st3" d="M45.9,52.8l-7.6-7.7c0,0-4.3,2.8-4,3.2s9.3,9,9.3,9L45.9,52.8z"/>
			<path id="Path_2054" class="st4" d="M57.1,46.9l-7.8-7.7c0,0-2.2,0.8-1.9,1.2s8.6,7.9,8.6,7.9L57.1,46.9z"/>
			<path id="Path_2202" class="st5" d="M52.1,49.9l-7.8-7.7c0,0-2.2,0.8-1.9,1.2s8.6,7.9,8.6,7.9L52.1,49.9z"/>
			<path id="Path_2206" class="st6" d="M46.1,52.9l-7.8-7.7c0,0-2.2,0.8-1.9,1.2s8.6,7.9,8.6,7.9L46.1,52.9z"/>
			<path id="Path_2055" d="M50.4,46.4c0.5-1.1,1.4-2,2.5-2.4c1.8-0.5,2.2,0,2.2,0l-2-2l-5.5,1.6L50.4,46.4z"/>
			<path id="Path_2203" d="M45.4,50.4c0.5-1.1,1.4-2,2.5-2.4c1.8-0.5,2.2,0,2.2,0l-2-2l-5.5,1.6L45.4,50.4z"/>
			<path id="Path_2207" d="M39.4,53.4c0.5-1.1,1.4-2,2.5-2.4c1.8-0.5,2.2,0,2.2,0l-2-2l-5.5,1.6L39.4,53.4z"/>
			<g id="Path_2200" transform="translate(53.692 45.179) rotate(13)">
				<path class="st7" d="M2.6,4.4c-1,0-1.8-1-1.8-2.2C0.8,1,1.6,0,2.6,0s1.8,1,1.8,2.2S3.5,4.4,2.6,4.4z"/>
				<path class="st8" d="M2.6,0.6c-0.7,0-1.3,0.8-1.3,1.7C1.3,3.2,1.9,4,2.6,4s1.3-0.8,1.3-1.7S3.3,0.6,2.6,0.6 M2.6-0.4
					c1.3,0,2.3,1.2,2.3,2.7S3.9,5,2.6,5C1.3,5,0.3,3.8,0.3,2.3C0.3,0.8,1.3-0.4,2.6-0.4z"/>
			</g>
			<g id="Path_2204" transform="translate(48.692 49.179) rotate(13)">
				<path class="st9" d="M2.6,4.4c-1,0-1.8-1-1.8-2.2C0.8,1,1.6,0,2.6,0s1.8,1,1.8,2.2S3.5,4.4,2.6,4.4z"/>
				<path class="st10" d="M2.6,0.6c-0.7,0-1.3,0.8-1.3,1.7C1.3,3.2,1.9,4,2.6,4s1.3-0.8,1.3-1.7S3.3,0.6,2.6,0.6 M2.6-0.4
					c1.3,0,2.3,1.2,2.3,2.7S3.9,5,2.6,5C1.3,5,0.3,3.8,0.3,2.3C0.3,0.8,1.3-0.4,2.6-0.4z"/>
			</g>
			<g id="Path_2208" transform="translate(42.692 52.179) rotate(13)">
				<path class="st11" d="M2.6,4.4c-1,0-1.8-1-1.8-2.2C0.8,1,1.6,0,2.6,0s1.8,1,1.8,2.2S3.5,4.4,2.6,4.4z"/>
				<path class="st12" d="M2.6,0.6c-0.7,0-1.3,0.8-1.3,1.7C1.3,3.2,1.9,4,2.6,4s1.3-0.8,1.3-1.7S3.3,0.6,2.6,0.6 M2.6-0.4
					c1.3,0,2.3,1.2,2.3,2.7S3.9,5,2.6,5C1.3,5,0.3,3.8,0.3,2.3C0.3,0.8,1.3-0.4,2.6-0.4z"/>
			</g>
			<path id="Path_2191" class="st13" d="M47.2,44l11.3-6.7L47.2,44z"/>
			<path id="Path_2186" class="st14" d="M0,31.8l29.7,25.3l34-20.6V34L0,29.2V31.8z"/>
			<path id="Path_2192" class="st15" d="M0.1,29.1L30,54.2l34-20.1L34,9.5L0.1,29.1z"/>
			<path id="Path_2191-2" class="st13" d="M47.2,44l11.3-6.7L47.2,44z"/>
			<path id="Path_2281" class="st16" d="M2.8,27.6l30.3,24.7l1.2-0.7L3.7,27.1L2.8,27.6z"/>
			<path id="Path_2287" class="st16" d="M7,25.1l30.3,24.6l1.2-0.7L7.8,24.7L7,25.1z"/>
			<path id="Path_2289" class="st17" d="M16.6,19.6l30.3,24.7l10.2-6L26.3,13.8L16.6,19.6z"/>
			<path id="Path_2294" class="st18" d="M21.1,16.9l30.3,24.6l1.2-0.7L21.9,16.5L21.1,16.9z"/>
			<path id="Path_2300" class="st16" d="M11.6,22.5l30.3,24.7l1.1-0.7L12.4,22L11.6,22.5z"/>
			<path id="Path_2301" class="st16" d="M29.6,12l30.2,24.7L61,36L30.5,11.5L29.6,12z"/>
		</g>
	</g>
</g>
<text transform="matrix(1 0 0 1 2.4364 13.1427)" class="st19 st20 st21">4+2 </text>
<text transform="matrix(1 0 0 1 3.2951 60.8398)" class="st22 st20 st21">6u</text>
<text transform="matrix(1 0 0 1 27.6402 8.0984)" class="st19 st20 st23">Lanes</text>
<g>
	<defs>
		<rect id="SVGID_00000013151407870791409800000017202479576772419212_" x="41.8" y="-0.2" width="21.4" height="21.4"/>
	</defs>
	<clipPath id="SVGID_00000029766722549807110660000001632891367551849130_">
		<use xlink:href="#SVGID_00000013151407870791409800000017202479576772419212_"  style="overflow:visible;"/>
	</clipPath>
	<g id="Bus_Stop_4" style="clip-path:url(#SVGID_00000029766722549807110660000001632891367551849130_);">
		<g id="InfoIconPublicTransport" transform="translate(19.047 14.05)">
			<path id="Rectangle_856" class="st25" d="M30.2-0.9L30.2-0.9c0.4,0,0.7,0.3,0.7,0.7v0.5c0,0.4-0.3,0.7-0.7,0.7h0
				c-0.4,0-0.7-0.3-0.7-0.7v-0.5C29.6-0.6,29.9-0.9,30.2-0.9z"/>
			<path id="Rectangle_1285" class="st25" d="M36.6-0.9L36.6-0.9c0.4,0,0.7,0.3,0.7,0.7v0.5C37.3,0.7,37,1,36.7,1h0
				C36.3,1,36,0.7,36,0.3v-0.5C36-0.6,36.3-0.9,36.6-0.9z"/>
			<path id="Rectangle_857" class="st25" d="M30.1-9.5h6.7c0.6,0,1,0.4,1,1v7.8c0,0.2-0.1,0.3-0.3,0.3h-8c-0.2,0-0.3-0.1-0.3-0.3
				v-7.8C29.1-9.1,29.6-9.5,30.1-9.5z"/>
			<path id="Path_381" class="st26" d="M30.6-3.2c0.4,0,0.8,0.3,0.8,0.7c0,0.4-0.3,0.8-0.7,0.8c0,0,0,0,0,0c-0.4,0-0.8-0.3-0.8-0.7
				C29.9-2.8,30.2-3.2,30.6-3.2C30.6-3.2,30.6-3.2,30.6-3.2z"/>
			<path id="Path_382" class="st26" d="M36.4-3.2c0.4,0,0.8,0.3,0.8,0.7c0,0.4-0.3,0.8-0.7,0.8c0,0,0,0,0,0c-0.4,0-0.8-0.3-0.8-0.7
				C35.7-2.8,36-3.2,36.4-3.2C36.4-3.2,36.4-3.2,36.4-3.2z"/>
			<path id="Rectangle_861" class="st27" d="M30.2-7.7h6.4c0.4,0,0.7,0.3,0.7,0.7v2.3C37.3-4.3,37-4,36.7-4h-6.4
				c-0.4,0-0.7-0.3-0.7-0.7V-7C29.6-7.4,29.9-7.7,30.2-7.7z"/>
			<polygon id="Rectangle_869" class="st28" points="31.8,-8.6 36,-8.6 36,-8.6 			"/>
		</g>
	</g>
</g>
</svg>
