<?xml version="1.0"?>
<svg width="64" height="64" xmlns="http://www.w3.org/2000/svg" xmlns:svg="http://www.w3.org/2000/svg">
 <defs>
  <clipPath id="b">
   <rect height="64" id="svg_1" width="64"/>
  </clipPath>
 </defs>
 <g class="layer">
  <title>Layer 1</title>
  <g id="svg_9">
   <path d="m6.51,24.52l32.74,27.96l8.4,-4.97l-29.34,-30.18l-11.79,7.2z" fill="#929191" id="svg_10"/>
   <path d="m1364.15,-1239.18l12.4,-7.45l-12.4,7.45z" fill="gray" id="svg_11" transform="translate(-1203.61 1158.61)"/>
   <path d="m3.82,25.76l32.74,27.96l3.53,-1.94l-32.86,-27.8l-3.41,1.78z" fill="#716e6e" id="svg_12"/>
   <path d="m9.89,21.59l32.75,27.9l15.84,-9.53l-34.94,-26.37l-13.65,8.01z" fill="#b0acac" id="svg_13"/>
   <path d="m42.92,50.82l-33,-28.02l0.1,-1.19l32.9,28l0,1.21z" fill="#d4d4d4" id="svg_14"/>
   <path d="m42.88,50.56l0.02,-1.25l15.7,-9.48l-0.12,1.27l-15.6,9.45z" fill="#d4d4d4" id="svg_15"/>
  </g>
  <rect fill="#d12e2e" height="3" id="svg_17" transform="matrix(0.746416 0.66548 -0.66548 0.746416 28.5624 -13.6562)" width="58.4" x="3.48" y="29.69"/>
  <g id="a" transform="matrix(1 0 0 1 0 0)">
   <g fill="#f5efef" id="svg_4" transform="matrix(1.84118 -0.118027 0.160826 1.3512 5.58769 1.97971)">
    <path d="m11.9,6.19c-2.65,0 -4.71,1.51 -5.97,2.78c-3.25,3.27 -5.16,8.72 -5.11,14.58c0.02,2.54 0.39,5 1.12,7.31c0.68,2.17 1.63,4.09 2.83,5.73c1.25,1.72 3.91,4.6 7.61,4.63l0.05,0c2.65,0 4.71,-1.51 5.97,-2.78c3.25,-3.28 5.16,-8.73 5.11,-14.58c-0.02,-2.54 -0.39,-5 -1.12,-7.31c-0.68,-2.17 -1.63,-4.1 -2.83,-5.74c-1.25,-1.71 -3.91,-4.6 -7.61,-4.62l-0.05,0m0,-5c0.03,0 0.06,0 0.09,0c9.03,0.06 16.43,10.2 16.52,22.63c0.1,12.4 -7.09,22.4 -16.08,22.4c-0.03,0 -0.06,0 -0.09,0c-9.03,-0.07 -16.43,-10.2 -16.52,-22.63c-0.1,-12.4 7.09,-22.4 16.08,-22.4z" fill="#d50d0d" id="svg_6"/>
   </g>
   <path d="m-18.1,5.68l44.26,61.42l-44.26,-61.42z" fill="#d50d0d" id="svg_16"/>
  </g>
 </g>
</svg>