<?xml version="1.0"?>
<svg width="64" height="64" xmlns="http://www.w3.org/2000/svg" xmlns:svg="http://www.w3.org/2000/svg">
 <defs>
  <clipPath id="clip-LargeRoad8lanes">
   <rect height="64" id="svg_1" width="64"/>
  </clipPath>undefinedundefined</defs>
 <g class="layer">
  <title>Layer 1</title>
  <polyline fill="none" id="svg_17" opacity="0.5" points="9.03616 5.97235 8.86219 6.96549 8.69062 7.86132 8.61571 8.6791 8.46874 9.5976" stroke-linecap="round"/>
  <text fill="#ffd4aa" font-family="Sans-serif" font-size="24" font-weight="bold" id="svg_18" stroke-width="0" text-anchor="middle" transform="matrix(1 0 0 1 0 0) matrix(0.539213 0 0 0.609831 0.963212 -1.20126)" x="15.16" xml:space="preserve" y="24.55">6</text>
  <text fill="#ffd4aa" font-family="Sans-serif" font-size="11" font-weight="normal" id="svg_19" stroke-width="0" text-anchor="middle" transform="matrix(0.774676 0 0 0.766501 3.36502 -0.988836)" x="28.24" xml:space="preserve" y="13.51">lane</text>
  <text fill="#aaffff" font-family="Sans-serif" font-size="24" font-weight="bold" id="svg_35" stroke-width="0" text-anchor="middle" transform="matrix(0.539213 0 0 0.609831 0.963212 -1.20126)" x="15.42" xml:space="preserve" y="100.33">4U</text>
  <g id="svg_2">
   <g clip-path="url(#clip-HighwayTwoway4lanes_)" data-name="HighwayTwoway4lanes " id="svg_3">
    <path d="m11.66,23.53l29.61,25.37l23.13,-14.25l0,-1.62l-52.74,-11.55l0,2.05z" data-name="Path 2186" fill="#c4c4c4" id="svg_4"/>
    <path d="m-1.05,31.4l29.61,25.37l23.13,-14.25l0,-1.62l-52.74,-11.55l0,2.05z" data-name="Path 2186" fill="#c4c4c4" id="svg_5" transform="matrix(1 0 0 1 0 0)"/>
    <path d="m12.12,21.71l29.69,25.1l23.11,-13.86l-30.02,-25.11l-22.78,13.87z" data-name="Path 2193" fill="#949494" id="svg_6"/>
    <path d="m-1.29,29.77l29.69,25.1l23.11,-13.86l-30.02,-25.11l-22.78,13.87z" data-name="Path 2193" fill="#949494" id="svg_7" transform="matrix(1 0 0 1 0 0)"/>
    <path d="m4.65,26.17l29.27,25.4l1.4,-0.74l-29.36,-25.48l-1.31,0.82z" data-name="Path 2190" fill="#e9bc29" id="svg_8" transform="matrix(1 0 0 1 0 0)"/>
    <path d="m21.95,15.55l29.26,25.4l1.41,-0.75l-29.36,-25.48l-1.31,0.83z" data-name="Path 2946" fill="#e9bc29" id="svg_9" transform="matrix(1 0 0 1 0 0)"/>
    <path d="m10.7,22.55l29.26,25.4l1.41,-0.74l-29.36,-25.48l-1.31,0.82z" data-name="Path 2947" fill="#e9bc29" id="svg_10" transform="matrix(1 0 0 1 0 0)"/>
    <path d="m27.72,12.24l29.26,25.4l1.41,-0.75l-29.36,-25.48l-1.31,0.83z" data-name="Path 2946" fill="#e9bc29" id="svg_11" transform="matrix(1 0 0 1 0 0)"/>
   </g>
   <path d="m15.76,18.94l29.69,25.23l2.02,-1.11l-29.25,-25.52l-2.46,1.39l0,0.01z" data-name="Path 2288" fill="#505050" id="svg_12"/>
  </g>
 </g>
</svg>