<?xml version="1.0"?>
<svg width="64" height="64" xmlns="http://www.w3.org/2000/svg" xmlns:svg="http://www.w3.org/2000/svg">
 <defs>
  <clipPath id="clip-LargeRoad8lanes">
   <rect height="64" id="svg_1" width="64"/>
  </clipPath>undefined</defs>
 <g class="layer">
  <title>Layer 1</title>
  <polyline fill="none" id="svg_17" opacity="0.5" points="9.03616 5.97235 8.86219 6.96549 8.69062 7.86132 8.61571 8.6791 8.46874 9.5976" stroke-linecap="round"/>
  <path d="m1134.93,-405.52a4.08,4.08 0 0 1 2.41,-2.26c1.68,-0.47 2.14,0 2.14,0l-1.92,-1.88l-5.26,1.55l2.63,2.59z" data-name="Path 2203" fill="rgba(59,59,59,0.61)" id="svg_10" transform="matrix(1 0 0 1 0 0)"/>
  <path d="m1195.82,-1060.81l10.82,-6.4l-10.82,6.4z" data-name="Path 2191" fill="gray" id="svg_24" transform="translate(-1201.93 1152.9)"/>
  <path d="m1.61,30.66l28.42,24.21l32.56,-19.71l0,-2.35l-60.97,-4.62l0,2.48l-0.01,-0.01z" data-name="Path 2186" fill="#434343" id="svg_25"/>
  <path d="m9.71,23.16l23,26.95l24.04,-14.14l-28.91,-23.43l-18.12,10.62l-0.01,0z" data-name="Path 2190" fill="#d4d4d4" id="svg_26"/>
  <path d="m1.6,28l28.57,24.01l32.52,-19.2l-28.65,-23.55l-32.43,18.74l-0.01,0z" data-name="Path 2192" fill="#929191" id="svg_28"/>
  <path d="m46.24,41.87l10.82,-6.4l-10.82,6.4z" data-name="Path 2191" fill="gray" id="svg_30"/>
  <path d="m17.06,18.88l28.97,23.58l1.52,-0.8l-29.37,-23.54l-1.12,0.77l0,-0.01z" data-name="Path 2294" fill="#3f3f3f" id="svg_33"/>
  <path d="m13.2,21l28.91,23.62l1.19,-0.66l-29.25,-23.38l-0.85,0.41l0,0.01z" data-name="Path 2288" fill="rgba(212,212,212,0.61)" id="svg_34"/>
  <path d="m21.37,16.2l28.88,23.58l1.18,-0.66l-29.23,-23.34l-0.83,0.42z" data-name="Path 2289" fill="rgba(212,212,212,0.61)" id="svg_36"/>
  <path d="m5.84,25.38l28.51,24.17l4.31,-2.59l-28.8,-23.85l-4.01,2.27l-0.01,0z" data-name="Path 2281" fill="#007f00" id="svg_40"/>
  <path d="m27.21,15.01l27.87,22.35l3.77,-2.41l-29.08,-23.48l-3.83,2.36l1.27,1.19l0,-0.01z" data-name="Path 2281" fill="#007f00" id="svg_64"/>
 </g>
</svg>