<?xml version="1.0"?>
<svg width="34" height="34" xmlns="http://www.w3.org/2000/svg" xmlns:svg="http://www.w3.org/2000/svg">
 <defs>
  <clipPath id="clip-LargeRoad8lanes">
   <rect height="34" id="svg_1" width="34"/>
  </clipPath>undefined</defs>
 <g class="layer">
  <title>Layer 1</title>
  <path d="m1241.23,-1118.43l11.31,-6.69l-11.31,6.69z" data-name="Path 2191" fill="gray" id="svg_24" transform="translate(-1201.93 1152.9)"/>
  <g id="svg_19">
   <path d="m28.84,23.33l-3.47,-3.53s-1.98,1.26 -1.84,1.45s4.26,4.13 4.26,4.13l1.05,-2.04z" data-name="Path 2053" fill="#706428" id="svg_3"/>
   <path d="m26.55,25.16l-3.47,-3.53s-1.98,1.26 -1.84,1.45s4.26,4.13 4.26,4.13l1.05,-2.04z" data-name="Path 2201" fill="#b47300" id="svg_4"/>
   <path d="m23.8,26.54l-3.47,-3.53s-1.98,1.26 -1.84,1.45s4.26,4.13 4.26,4.13l1.05,-2.04z" data-name="Path 2205" fill="#61a2d3" id="svg_5"/>
   <path d="m28.94,23.81l-3.58,-3.53s-1.02,0.36 -0.88,0.55s3.92,3.61 3.92,3.61l0.55,-0.63z" data-name="Path 2054" fill="#9a8a39" id="svg_6"/>
   <path d="m26.66,25.18l-3.58,-3.53s-1.02,0.36 -0.88,0.55s3.92,3.61 3.92,3.61l0.55,-0.63z" data-name="Path 2202" fill="#e39c03" id="svg_7"/>
   <path d="m23.91,26.55l-3.58,-3.53s-1.02,0.36 -0.88,0.55s3.92,3.61 3.92,3.61l0.55,-0.63z" data-name="Path 2206" fill="#7ac6ff" id="svg_8"/>
   <path d="m23.61,25.4a1.95,1.95 0 0 1 1.15,-1.08c0.81,-0.22 1.03,0 1.03,0l-0.92,-0.9l-2.52,0.74l1.26,1.24z" data-name="Path 2203" fill="rgba(59,59,59,0.61)" id="svg_10"/>
   <g data-name="Path 2200" fill="#4d4324" id="svg_12" transform="matrix(0.445947 0.102955 -0.102955 0.445947 -5.41894 -7.34357)">
    <path d="m87.32,53c-0.98,0 -1.78,-0.97 -1.78,-2.15c0,-1.19 0.8,-2.15 1.78,-2.15c0.98,0 1.78,0.96 1.78,2.15c0,1.18 -0.8,2.15 -1.78,2.15z" id="svg_13"/>
    <path d="m87.32,49.2c-0.69,0 -1.28,0.75 -1.28,1.65c0,0.89 0.59,1.65 1.28,1.65c0.7,0 1.28,-0.76 1.28,-1.65c0,-0.9 -0.58,-1.65 -1.28,-1.65m0,-1c1.26,0 2.28,1.18 2.28,2.65c0,1.46 -1.02,2.65 -2.28,2.65c-1.26,0 -2.28,-1.19 -2.28,-2.65c0,-1.47 1.02,-2.65 2.28,-2.65z" fill="#755902" id="svg_14"/>
   </g>
   <g data-name="Path 2204" fill="#748991" id="svg_15" transform="matrix(0.445947 0.102955 -0.102955 0.445947 -5.06577 -6.78188)">
    <path d="m82.32,57c-0.98,0 -1.78,-0.97 -1.78,-2.15c0,-1.19 0.8,-2.15 1.78,-2.15c0.98,0 1.78,0.96 1.78,2.15c0,1.18 -0.8,2.15 -1.78,2.15z" id="svg_16"/>
    <path d="m82.32,53.2c-0.69,0 -1.28,0.75 -1.28,1.65c0,0.89 0.59,1.65 1.28,1.65c0.7,0 1.28,-0.76 1.28,-1.65c0,-0.9 -0.58,-1.65 -1.28,-1.65m0,-1c1.26,0 2.28,1.18 2.28,2.65c0,1.46 -1.02,2.65 -2.28,2.65c-1.26,0 -2.28,-1.19 -2.28,-2.65c0,-1.47 1.02,-2.65 2.28,-2.65z" fill="#8d5b03" id="svg_20"/>
   </g>
   <g data-name="Path 2208" fill="#4a6068" id="svg_21" transform="matrix(0.445947 0.102955 -0.102955 0.445947 -4.82729 -6.12896)">
    <path d="m76.32,60c-0.98,0 -1.78,-0.97 -1.78,-2.15c0,-1.19 0.8,-2.15 1.78,-2.15c0.98,0 1.78,0.96 1.78,2.15c0,1.18 -0.8,2.15 -1.78,2.15z" id="svg_22"/>
    <path d="m76.32,56.2c-0.69,0 -1.28,0.75 -1.28,1.65c0,0.89 0.59,1.65 1.28,1.65c0.7,0 1.28,-0.76 1.28,-1.65c0,-0.9 -0.58,-1.65 -1.28,-1.65m0,-1c1.26,0 2.28,1.18 2.28,2.65c0,1.46 -1.02,2.65 -2.28,2.65c-1.26,0 -2.28,-1.19 -2.28,-2.65c0,-1.47 1.02,-2.65 2.28,-2.65z" fill="#4e7989" id="svg_23"/>
   </g>
   <path d="m4.76,15.88l13.6,11.58l15.58,-9.43l0,-1.13l-29.18,-2.21l0,1.19z" data-name="Path 2186" fill="#434343" id="svg_25"/>
   <path d="m0.09,18.75l13.6,11.58l15.58,-9.43l0,-1.13l-29.18,-2.21l0,1.19z" data-name="Path 2186" fill="#434343" id="svg_27"/>
   <path d="m0.12,17.38l13.67,11.49l15.56,-9.19l-13.71,-11.27l-15.52,8.97z" data-name="Path 2192" fill="#929191" id="svg_28"/>
   <path d="m4.87,14.55l13.67,11.49l15.56,-9.19l-13.71,-11.27l-15.52,8.97z" data-name="Path 2192" fill="#929191" id="svg_29"/>
   <path d="m24.4,22.51l5.18,-3.06l-5.18,3.06z" data-name="Path 2191" fill="gray" id="svg_30"/>
   <path d="m4.08,14.98l13.89,11.31l0.56,-0.32l-14.05,-11.19l-0.4,0.2z" data-name="Path 2281" fill="rgba(212,212,212,0.61)" id="svg_31"/>
   <path d="m5.98,13.85l13.86,11.28l0.56,-0.32l-14.02,-11.17l-0.4,0.2z" data-name="Path 2287" fill="rgba(212,212,212,0.61)" id="svg_32"/>
   <path d="m10.21,11.41l13.86,11.28l0.56,-0.32l-14.02,-11.17l-0.4,0.2z" data-name="Path 2294" fill="#f5c31e" id="svg_33"/>
   <path d="m8.11,12.59l13.84,11.3l0.57,-0.32l-14,-11.19l-0.41,0.2z" data-name="Path 2288" fill="rgba(212,212,212,0.61)" id="svg_34"/>
   <path d="m12.31,10.16l13.82,11.28l0.56,-0.32l-13.99,-11.17l-0.4,0.2z" data-name="Path 2289" fill="rgba(212,212,212,0.61)" id="svg_36"/>
   <path d="m14.31,8.99l13.82,11.29l0.56,-0.32l-13.98,-11.17l-0.4,0.2z" data-name="Path 2300" fill="rgba(212,212,212,0.61)" id="svg_37"/>
   <path d="m16.36,7.84l13.82,11.28l0.56,-0.32l-13.99,-11.17l-0.4,0.2z" data-name="Path 2301" fill="rgba(212,212,212,0.61)" id="svg_38"/>
   <path d="m18.24,6.77l13.82,11.28l0.56,-0.32l-13.99,-11.17l-0.4,0.2z" data-name="Path 2301" fill="rgba(212,212,212,0.61)" id="svg_39"/>
   <path d="m1.92,16.31l13.89,11.31l0.56,-0.32l-14.05,-11.19l-0.4,0.2z" data-name="Path 2281" fill="rgba(212,212,212,0.61)" id="svg_40"/>
  </g>
 </g>
</svg>