<?xml version="1.0"?>
<svg width="64" height="64" xmlns="http://www.w3.org/2000/svg" xmlns:svg="http://www.w3.org/2000/svg">
 <defs>
  <clipPath id="b">
   <rect height="64" id="svg_1" width="64"/>
  </clipPath>
 </defs>
 <g class="layer">
  <title>Layer 1</title>
  <g id="a">
   <path d="m16.49,20.98l28.75,24.9l7.36,-4.61l0,-2.72l-36.24,-19.62l0.13,2.05z" fill="#007fff" id="svg_2"/>
   <path d="m16.25,18.96l29.01,24.23l7.33,-4.75l-28.39,-24.66l-7.95,5.18z" fill="#42a0ff" id="svg_3"/>
   <path d="m2103.09,318.43l3.47,3.24l0,-0.92l-3.35,-3.06l-0.12,0.74z" fill="#305ca8" id="svg_16" opacity="0.43" transform="matrix(1 0 0 1 0 0)"/>
   <path d="m2068.44,323.59l0.81,3.26l5.76,5.48l4.07,-2.4l0.23,-1.94l-10.87,-4.4z" fill="#9ee2fc" id="svg_17" transform="translate(-2035 -295.748)"/>
   <path d="m2068.97,321.48a12.97,12.97 0 0 1 3.71,1.05a78.19,78.19 0 0 1 5.98,5.55l-4.64,2.84s-5.82,-5.11 -6.11,-6.78a2.86,2.86 0 0 1 1.06,-2.66z" fill="#d3b47f" id="svg_18" transform="translate(-2034.432 -295.875)"/>
   <path d="m2069.64,322.15l2.9,-1.28l1.94,1.71l-2.99,1.36l-1.85,-1.79z" fill="#fff" id="svg_19" transform="translate(-2034.776 -296.086)"/>
   <path d="m2073.76,329.66l3.84,-2.3l-0.52,-1.84l-3.09,1.6l-0.23,2.54z" fill="#d5d5d5" id="svg_20" transform="translate(-2034.004 -295.509)"/>
   <path d="m2071.1,323.74l3.16,-1.36l0.05,1.16l1.63,1.42l-2.9,2.23l-1.94,-1.87l0,-1.58z" fill="#ddd" id="svg_21" transform="translate(-2034.502 -295.898)"/>
   <path d="m40.02,31.67l3.06,-1.62l-1.59,-1.33l-2.99,1.53l1.52,1.42z" fill="#fff" id="svg_22"/>
   <path d="m2068.72,323.74l5.94,6.49l0.31,-2.57l-1.47,-1.49l-0.37,0.38l-1.53,-1.6l0,-1.21l-1.8,-1.76l-1.08,1.76z" fill="#f3eded" id="svg_23" transform="translate(-2034.947 -295.948)"/>
   <path d="m2070.38,322l1.63,-0.71l1.49,1.26l-1.68,0.68l-1.44,-1.23z" fill="#64c1ff" id="svg_24" transform="translate(-2034.661 -296.031)"/>
   <path d="m2070.38,322l1.63,-0.71l1.06,0.77l-1.62,0.8l-1.07,-0.86z" fill="#64c1ff" id="svg_25" transform="translate(-2032.705 -292.909)"/>
   <path d="m2063.55,321.52l1.32,1.28l0,0.97l-1.75,-1.58l0.43,-0.67z" fill="#305ca8" id="svg_26" opacity="0.46" transform="translate(-2029 -295)"/>
   <path d="m2065.9,324.92l2.99,2.77l3.4,-1.94l0.16,0.69l-3.69,2.22l-2.86,-2.91l0,-0.83z" fill="#305ca8" id="svg_27" opacity="0.47" transform="translate(-2029 -295)"/>
   <path d="m2105.82,315l-0.46,-0.39l-0.6,0.25l-0.55,1.16l0.92,0.79l0.69,-0.33l0,-1.48z" fill="#96a6b9" id="svg_28" transform="translate(-2064.918 -285.691)"/>
   <path d="m2105.82,315l-0.46,-0.39l-0.6,0.25l-0.55,1.16l0.92,0.79l0.69,-0.33l0,-1.48z" fill="#96a6b9" id="svg_29" transform="translate(-2063.579 -286.297)"/>
   <path d="m2136.9,311.91l7.89,4.97l-5.49,-6.15l-2.4,1.18z" fill="#fff" id="svg_31" opacity="0.23" transform="translate(-2096 -276)"/>
  </g>
 </g>
</svg>