<?xml version="1.0"?>
<svg width="64" height="64" xmlns="http://www.w3.org/2000/svg" xmlns:svg="http://www.w3.org/2000/svg">
 <defs>
  <clipPath id="clip-LargeRoad8lanes">
   <rect height="64" id="svg_1" width="64"/>
  </clipPath>undefined</defs>
 <g class="layer">
  <title>Layer 1</title>
  <polyline fill="none" id="svg_17" opacity="0.5" points="9.03616 5.97235 8.86219 6.96549 8.69062 7.86132 8.61571 8.6791 8.46874 9.5976" stroke-linecap="round"/>
  <text fill="#ffd4aa" font-family="Sans-serif" font-size="24" font-weight="bold" id="svg_18" stroke-width="0" style="cursor: move;" text-anchor="middle" transform="matrix(1 0 0 1 0 0) matrix(0.539213 0 0 0.609831 0.963212 -1.20126)" x="20.8" xml:space="preserve" y="24.44">3</text>
  <text fill="#ffd4aa" font-family="Sans-serif" font-size="11" font-weight="normal" id="svg_19" stroke-width="0" text-anchor="middle" transform="matrix(0.774676 0 0 0.766501 3.36502 -0.988836)" x="28.24" xml:space="preserve" y="13.51">lane</text>
  <g id="svg_22">
   <path d="m54.41,40.47l-6.35,-6.46s-3.61,2.31 -3.36,2.65s7.78,7.54 7.78,7.54l1.92,-3.73l0.01,0z" data-name="Path 2053" fill="#706428" id="svg_21"/>
   <path d="m50.23,43.81l-6.35,-6.46s-3.61,2.31 -3.36,2.65s7.78,7.54 7.78,7.54l1.92,-3.73l0.01,0z" data-name="Path 2201" fill="#b47300" id="svg_20"/>
   <path d="m45.21,46.32l-6.35,-6.46s-3.61,2.31 -3.36,2.65s7.78,7.54 7.78,7.54l1.92,-3.73l0.01,0z" data-name="Path 2205" fill="#61a2d3" id="svg_16"/>
   <path d="m54.61,41.34l-6.55,-6.45s-1.86,0.66 -1.61,1s7.15,6.59 7.15,6.59l1.01,-1.15l0,0.01z" data-name="Path 2054" fill="#9a8a39" id="svg_15"/>
   <path d="m50.42,43.85l-6.55,-6.45s-1.86,0.66 -1.61,1s7.15,6.59 7.15,6.59l1.01,-1.15l0,0.01z" data-name="Path 2202" fill="#e39c03" id="svg_14"/>
   <path d="m45.41,46.35l-6.55,-6.45s-1.86,0.66 -1.61,1s7.15,6.59 7.15,6.59l1.01,-1.15l0,0.01z" data-name="Path 2206" fill="#7ac6ff" id="svg_13"/>
   <g data-name="Path 2200" fill="#4d4324" id="svg_10" transform="matrix(0.815084 0.188177 -0.188177 0.815084 13.5835 3.00478)">
    <path d="m56.94,37.19c-0.98,0 -1.78,-0.97 -1.78,-2.15c0,-1.19 0.8,-2.15 1.78,-2.15c0.98,0 1.78,0.96 1.78,2.15c0,1.18 -0.8,2.15 -1.78,2.15z" id="svg_11"/>
    <path d="m56.94,33.39c-0.69,0 -1.28,0.75 -1.28,1.65c0,0.89 0.59,1.65 1.28,1.65c0.7,0 1.28,-0.76 1.28,-1.65c0,-0.9 -0.58,-1.65 -1.28,-1.65m0,-1c1.26,0 2.28,1.18 2.28,2.65c0,1.46 -1.02,2.65 -2.28,2.65c-1.26,0 -2.28,-1.19 -2.28,-2.65c0,-1.47 1.02,-2.65 2.28,-2.65z" fill="#755902" id="svg_12"/>
   </g>
   <g data-name="Path 2204" fill="#748991" id="svg_7">
    <path d="m48.81,47.37c-0.8,-0.18 -1.27,-1.13 -1.05,-2.09c0.23,-0.97 1.06,-1.6 1.85,-1.42c0.8,0.18 1.27,1.12 1.05,2.09c-0.22,0.96 -1.06,1.6 -1.85,1.42z" id="svg_8"/>
    <path d="m49.53,44.28c-0.56,-0.13 -1.18,0.37 -1.36,1.1c-0.17,0.73 0.17,1.45 0.73,1.58c0.57,0.13 1.19,-0.38 1.36,-1.1c0.17,-0.73 -0.17,-1.45 -0.73,-1.58m0.19,-0.81c1.02,0.24 1.64,1.39 1.36,2.59c-0.27,1.19 -1.33,1.97 -2.35,1.73c-1.02,-0.24 -1.64,-1.4 -1.36,-2.59c0.28,-1.2 1.33,-1.97 2.35,-1.73z" fill="#8d5b03" id="svg_9"/>
   </g>
   <g data-name="Path 2208" fill="#4a6068" id="svg_4" transform="matrix(0.815084 0.188177 -0.188177 0.815084 14.6649 5.22481)">
    <path d="m45.94,44.19c-0.98,0 -1.78,-0.97 -1.78,-2.15c0,-1.19 0.8,-2.15 1.78,-2.15c0.98,0 1.78,0.96 1.78,2.15c0,1.18 -0.8,2.15 -1.78,2.15z" id="svg_5"/>
    <path d="m45.94,40.39c-0.69,0 -1.28,0.75 -1.28,1.65c0,0.89 0.59,1.65 1.28,1.65c0.7,0 1.28,-0.76 1.28,-1.65c0,-0.9 -0.58,-1.65 -1.28,-1.65m0,-1c1.26,0 2.28,1.18 2.28,2.65c0,1.46 -1.02,2.65 -2.28,2.65c-1.26,0 -2.28,-1.19 -2.28,-2.65c0,-1.47 1.02,-2.65 2.28,-2.65z" fill="#4e7989" id="svg_6"/>
   </g>
   <path d="m46.37,38.96l9.46,-5.6l-9.46,5.6z" data-name="Path 2191" fill="gray" id="svg_3"/>
  </g>
  <g clip-path="url(#clip-MediumRoadOneway)" id="svg_2">
   <path d="m1244.18,-1111.68l11.31,-6.69l-11.31,6.69z" data-name="Path 2191" fill="gray" id="svg_24" transform="translate(-1201.93 1152.9)"/>
   <path d="m6.81,22.61l29.69,25.6l19.27,-11.66l0,-1.54l-49.03,-14.01l0.08,1.61l-0.01,0z" data-name="Path 2186" fill="#434343" id="svg_25"/>
   <path d="m7.18,21.02l29.89,24.46l18.78,-10.91l-31.78,-23.68l-17.7,10.34l0.81,-0.21z" data-name="Path 2190" fill="#bababa" id="svg_26"/>
   <path d="m7.23,20.88l29.31,25.29l5.99,-3.6l-29.84,-24.94l-5.46,3.25z" data-name="Path 2193" fill="#929191" id="svg_27"/>
   <path d="m13.82,16.99l29.87,25.1l5.82,-3.42l-30.02,-24.91l-5.67,3.23z" data-name="Path 2211" fill="#929191" id="svg_28"/>
   <path d="m20.71,27.59l0.74,5.23l1.5,-0.84l5.27,4.86l2.4,-1.41l-5.16,-4.7l1.72,-1l-6.47,-2.14z" data-name="Path 2285" fill="#fff" id="svg_31"/>
   <path d="m27.02,23.39l0.74,5.23l1.5,-0.84l5.27,4.86l2.4,-1.41l-5.16,-4.7l1.72,-1l-6.47,-2.14z" data-name="Path 2286" fill="#fff" id="svg_32"/>
   <path d="m20.34,12.91l29.87,25.1l5.82,-3.42l-30.02,-24.91l-5.67,3.23z" data-name="Path 2211" fill="#929191" id="svg_23"/>
   <path d="m34.05,19.22l0.74,5.23l1.5,-0.84l5.27,4.86l2.4,-1.41l-5.16,-4.7l1.72,-1l-6.47,-2.14z" data-name="Path 2286" fill="#fff" id="svg_29"/>
  </g>
  <text fill="#aaffff" font-family="Sans-serif" font-size="24" font-weight="bold" id="svg_35" stroke-width="0" text-anchor="middle" transform="matrix(0.539213 0 0 0.609831 0.963212 -1.20126)" x="26.18" xml:space="preserve" y="100.33">1.3U</text>
 </g>
</svg>