<?xml version="1.0"?>
<svg width="64" height="64" xmlns="http://www.w3.org/2000/svg" xmlns:svg="http://www.w3.org/2000/svg">
 <defs>
  <clipPath id="clip-LargeRoad8lanes">
   <rect height="64" id="svg_1" width="64"/>
  </clipPath>undefined</defs>
 <g class="layer">
  <title>Layer 1</title>
  <polyline fill="none" id="svg_17" opacity="0.5" points="9.03616 5.97235 8.86219 6.96549 8.69062 7.86132 8.61571 8.6791 8.46874 9.5976" stroke-linecap="round"/>
  <text fill="#ffd4aa" font-family="Sans-serif" font-size="24" font-weight="bold" id="svg_18" stroke-width="0" text-anchor="middle" transform="matrix(1 0 0 1 0 0) matrix(0.539213 0 0 0.609831 0.963212 -1.20126)" x="23.49" xml:space="preserve" y="24.1">4+2</text>
  <g clip-path="url(#clip-LargeRoad8lanes)" id="svg_2">
   <path d="m55.52,43.59l-7.26,-7.39s-4.13,2.64 -3.84,3.03s8.89,8.62 8.89,8.62l2.2,-4.26l0.01,0z" data-name="Path 2053" fill="#706428" id="svg_3"/>
   <path d="m50.74,47.42l-7.26,-7.39s-4.13,2.64 -3.84,3.03s8.89,8.62 8.89,8.62l2.2,-4.26l0.01,0z" data-name="Path 2201" fill="#b47300" id="svg_4"/>
   <path d="m45,50.29l-7.26,-7.39s-4.13,2.64 -3.84,3.03s8.89,8.62 8.89,8.62l2.2,-4.26l0.01,0z" data-name="Path 2205" fill="#61a2d3" id="svg_5"/>
   <path d="m55.75,44.59l-7.49,-7.37s-2.13,0.75 -1.84,1.14s8.18,7.54 8.18,7.54l1.15,-1.32l0,0.01z" data-name="Path 2054" fill="#9a8a39" id="svg_6"/>
   <path d="m50.96,47.46l-7.49,-7.37s-2.13,0.75 -1.84,1.14s8.18,7.54 8.18,7.54l1.15,-1.32l0,0.01z" data-name="Path 2202" fill="#e39c03" id="svg_7"/>
   <path d="m45.23,50.32l-7.49,-7.37s-2.13,0.75 -1.84,1.14s8.18,7.54 8.18,7.54l1.15,-1.32l0,0.01z" data-name="Path 2206" fill="#7ac6ff" id="svg_8"/>
   <path d="m1134.93,-405.46a4.08,4.08 0 0 1 2.41,-2.26c1.68,-0.47 2.14,0 2.14,0l-1.92,-1.88l-5.26,1.55l2.63,2.59z" data-name="Path 2203" fill="rgba(59,59,59,0.61)" id="svg_10" transform="translate(-1139.99 474.025)"/>
   <path d="m1134.93,-405.46a4.08,4.08 0 0 1 2.41,-2.26c1.68,-0.47 2.14,0 2.14,0l-1.92,-1.88l-5.26,1.55l2.63,2.59z" data-name="Path 2207" fill="rgba(59,59,59,0.61)" id="svg_11" transform="translate(-1145.99 477.025)"/>
   <g data-name="Path 2200" fill="#4d4324" id="svg_12" transform="matrix(0.931928 0.215153 -0.215153 0.931928 10.1291 -8.38235)">
    <path d="m57.78,46.81c-0.98,0 -1.78,-0.97 -1.78,-2.15c0,-1.19 0.8,-2.15 1.78,-2.15c0.98,0 1.78,0.96 1.78,2.15c0,1.18 -0.8,2.15 -1.78,2.15z" id="svg_13"/>
    <path d="m57.78,43.01c-0.69,0 -1.28,0.75 -1.28,1.65c0,0.89 0.59,1.65 1.28,1.65c0.7,0 1.28,-0.76 1.28,-1.65c0,-0.9 -0.58,-1.65 -1.28,-1.65m0,-1c1.26,0 2.28,1.18 2.28,2.65c0,1.46 -1.02,2.65 -2.28,2.65c-1.26,0 -2.28,-1.19 -2.28,-2.65c0,-1.47 1.02,-2.65 2.28,-2.65z" fill="#755902" id="svg_14"/>
   </g>
   <g data-name="Path 2204" fill="#748991" id="svg_15">
    <path d="m49.12,51.49c-0.91,-0.21 -1.45,-1.29 -1.2,-2.39c0.26,-1.11 1.21,-1.83 2.12,-1.62c0.91,0.21 1.45,1.28 1.2,2.39c-0.25,1.1 -1.21,1.83 -2.12,1.62z" id="svg_16"/>
    <path d="m49.94,47.95c-0.64,-0.15 -1.35,0.42 -1.55,1.26c-0.19,0.83 0.19,1.66 0.84,1.81c0.65,0.15 1.36,-0.43 1.55,-1.26c0.19,-0.84 -0.19,-1.66 -0.84,-1.81m0.22,-0.93c1.17,0.27 1.87,1.59 1.55,2.96c-0.31,1.36 -1.52,2.25 -2.69,1.98c-1.17,-0.27 -1.87,-1.6 -1.55,-2.96c0.32,-1.37 1.52,-2.25 2.69,-1.98z" fill="#8d5b03" id="svg_20"/>
   </g>
   <g data-name="Path 2208" fill="#4a6068" id="svg_21" transform="matrix(0.931928 0.215153 -0.215153 0.931928 11.3655 -5.84408)">
    <path d="m46.78,53.81c-0.98,0 -1.78,-0.97 -1.78,-2.15c0,-1.19 0.8,-2.15 1.78,-2.15c0.98,0 1.78,0.96 1.78,2.15c0,1.18 -0.8,2.15 -1.78,2.15z" id="svg_22"/>
    <path d="m46.78,50.01c-0.69,0 -1.28,0.75 -1.28,1.65c0,0.89 0.59,1.65 1.28,1.65c0.7,0 1.28,-0.76 1.28,-1.65c0,-0.9 -0.58,-1.65 -1.28,-1.65m0,-1c1.26,0 2.28,1.18 2.28,2.65c0,1.46 -1.02,2.65 -2.28,2.65c-1.26,0 -2.28,-1.19 -2.28,-2.65c0,-1.47 1.02,-2.65 2.28,-2.65z" fill="#4e7989" id="svg_23"/>
   </g>
   <path d="m1195.82,-1060.81l10.82,-6.4l-10.82,6.4z" data-name="Path 2191" fill="gray" id="svg_24" transform="translate(-1201.93 1152.9)"/>
   <path d="m1.61,30.66l28.42,24.21l32.56,-19.71l0,-2.35l-60.97,-4.62l0,2.48l-0.01,-0.01z" data-name="Path 2186" fill="#434343" id="svg_25"/>
   <path d="m9.71,23.16l23,26.95l24.04,-14.14l-28.91,-23.43l-18.12,10.62l-0.01,0z" data-name="Path 2190" fill="#d4d4d4" id="svg_26"/>
   <path d="m1.6,28l28.57,24.01l32.52,-19.2l-28.65,-23.55l-32.43,18.74l-0.01,0z" data-name="Path 2192" fill="#929191" id="svg_28"/>
   <path d="m46.24,41.87l10.82,-6.4l-10.82,6.4z" data-name="Path 2191" fill="gray" id="svg_30"/>
   <path d="m17.06,18.88l28.97,23.58l1.52,-0.8l-29.37,-23.54l-1.12,0.77l0,-0.01z" data-name="Path 2294" fill="#3f3f3f" id="svg_33"/>
   <path d="m13.2,21l28.91,23.62l1.19,-0.66l-29.25,-23.38l-0.85,0.41l0,0.01z" data-name="Path 2288" fill="rgba(212,212,212,0.61)" id="svg_34"/>
   <path d="m21.37,16.2l28.88,23.58l1.18,-0.66l-29.23,-23.34l-0.83,0.42z" data-name="Path 2289" fill="rgba(212,212,212,0.61)" id="svg_36"/>
   <path d="m5.84,25.38l28.51,24.17l4.31,-2.59l-28.8,-23.85l-4.01,2.27l-0.01,0z" data-name="Path 2281" fill="#007f00" id="svg_40"/>
   <path d="m27.21,15.01l27.87,22.35l3.77,-2.41l-29.08,-23.48l-3.83,2.36l1.27,1.19z" data-name="Path 2281" fill="#007f00" id="svg_64"/>
  </g>
  <text fill="#ffd4aa" font-family="Sans-serif" font-size="11" font-weight="normal" id="svg_19" stroke-width="0" text-anchor="middle" transform="matrix(1 0 0 1 0 0) matrix(0.774676 0 0 0.766501 3.36502 -0.988836)" x="41" xml:space="preserve" y="12.7">lane</text>
  <text fill="#aaffff" font-family="Sans-serif" font-size="24" font-weight="bold" id="svg_35" stroke-width="0" text-anchor="middle" transform="matrix(1 0 0 1 0 0) matrix(0.539213 0 0 0.609831 0.963212 -1.20126)" x="15.42" xml:space="preserve" y="100.33">5U</text>
 </g>
</svg>