<?xml version="1.0"?>
<svg width="40" height="40" xmlns="http://www.w3.org/2000/svg" xmlns:svg="http://www.w3.org/2000/svg">
 <defs>
  <clipPath id="b">
   <rect height="40" id="svg_1" width="40"/>
  </clipPath>
 </defs>
 <g class="layer">
  <title>Layer 1</title>
  <g id="a">
   <path d="m733.5,-302.42l18.07,15.48l14.1,-9.39l0,-1.62l-32.17,-6.08l0,1.61z" fill="#434343" id="svg_2" transform="translate(-730 320.306)"/>
   <path d="m1223.5,-1133.65l18.12,15.39l14.11,-9.27l-18.26,-15.21l-13.97,9.09z" fill="gray" id="svg_3" transform="translate(-1220 1149.886)"/>
   <path d="m740.48,-308.62l3.13,2.64l1.38,-0.91l-3.12,-2.61l-1.39,0.88z" fill="#d4d4d4" id="svg_4" transform="translate(-729.414 321.622)"/>
   <path d="m740.39,-308.93l3.13,2.64l1.38,-0.91l-3.12,-2.61l-1.39,0.88z" fill="#d4d4d4" id="svg_5" transform="translate(-716.136 332.797)"/>
   <path d="m741.15,-309.03l3.13,2.63l1.39,-0.91l-3.12,-2.61l-1.4,0.89z" fill="#d4d4d4" id="svg_6" transform="translate(-723.76 327.228)"/>
  </g>
  <g id="svg_7" transform="matrix(1 0 0 1 0 0)">
   <g id="svg_8" transform="translate(2 0.5)">
    <path d="m3.23,29.22a2.43,2.43 0 1 1 -2.43,-2.43a2.43,2.43 0 0 1 2.43,2.43z" fill="#ffffff" id="svg_9" transform="translate(0 -2.736)"/>
    <path d="m11.26,22.08a2.43,2.43 0 1 1 -2.43,-2.43a2.43,2.43 0 0 1 2.43,2.43z" fill="#ffffff" id="svg_10" transform="translate(-3.078 0)"/>
    <path d="m21.97,22.08a2.43,2.43 0 1 1 -2.43,-2.43a2.43,2.43 0 0 1 2.43,2.43z" fill="#ffffff" id="svg_11" transform="translate(-7.183 0)"/>
    <path d="m30,29.22a2.43,2.43 0 1 1 -2.43,-2.43a2.43,2.43 0 0 1 2.43,2.43z" fill="#ffffff" id="svg_12" transform="translate(-10.261 -2.736)"/>
    <path d="m14.89,37.27c-0.84,-0.99 -1.56,-1.83 -2.4,-2.83a4.12,4.12 0 0 0 -1.7,-1.27a1.96,1.96 0 0 0 -0.32,-0.1a4.89,4.89 0 0 0 -0.76,-0.04a4.07,4.07 0 0 0 -0.76,0.05a1.96,1.96 0 0 0 -0.32,0.1a4.19,4.19 0 0 0 -1.7,1.27c-0.84,0.99 -1.56,1.83 -2.4,2.83c-1.27,1.26 -2.84,2.68 -2.55,4.64a3.05,3.05 0 0 0 2.26,2.26c0.71,0.14 2.97,-0.43 5.38,-0.43l0.18,0c2.4,0 4.66,0.56 5.38,0.43a3.06,3.06 0 0 0 2.26,-2.26c0.3,-1.98 -1.26,-3.38 -2.53,-4.65z" fill="#ffffff" id="svg_13" transform="translate(-1.364 -5.13)"/>
   </g>
  </g>
  <g id="svg_14">
   <g id="svg_15" transform="translate(2 0.5)">
    <path d="m2.88,28.85a2.43,2.43 0 1 1 -2.43,-2.43a2.43,2.43 0 0 1 2.43,2.43z" fill="#d4aaff" id="svg_16" transform="translate(0 -2.736)"/>
    <path d="m10.91,21.71a2.43,2.43 0 1 1 -2.43,-2.43a2.43,2.43 0 0 1 2.43,2.43z" fill="#d4aaff" id="svg_17" transform="translate(-3.078 0)"/>
    <path d="m21.62,21.71a2.43,2.43 0 1 1 -2.43,-2.43a2.43,2.43 0 0 1 2.43,2.43z" fill="#d4aaff" id="svg_18" transform="translate(-7.183 0)"/>
    <path d="m29.66,28.85a2.43,2.43 0 1 1 -2.43,-2.43a2.43,2.43 0 0 1 2.43,2.43z" fill="#d4aaff" id="svg_19" transform="translate(-10.261 -2.736)"/>
    <path d="m14.54,36.91c-0.84,-0.99 -1.56,-1.83 -2.4,-2.83a4.12,4.12 0 0 0 -1.7,-1.27a1.96,1.96 0 0 0 -0.32,-0.1a4.89,4.89 0 0 0 -0.76,-0.04a4.07,4.07 0 0 0 -0.76,0.05a1.96,1.96 0 0 0 -0.32,0.1a4.19,4.19 0 0 0 -1.7,1.27c-0.84,0.99 -1.56,1.83 -2.4,2.83c-1.27,1.26 -2.84,2.68 -2.55,4.64a3.05,3.05 0 0 0 2.26,2.26c0.71,0.14 2.97,-0.43 5.38,-0.43l0.18,0c2.4,0 4.66,0.56 5.38,0.43a3.06,3.06 0 0 0 2.26,-2.26c0.3,-1.98 -1.26,-3.38 -2.53,-4.65z" fill="#d4aaff" id="svg_20" transform="translate(-1.364 -5.13)"/>
   </g>
  </g>
 </g>
</svg>