<?xml version="1.0" encoding="utf-8"?>
<!-- Generator: Adobe Illustrator 27.8.1, SVG Export Plug-In . SVG Version: 6.00 Build 0)  -->
<svg version="1.1" id="图层_1" xmlns="http://www.w3.org/2000/svg" xmlns:xlink="http://www.w3.org/1999/xlink" x="0px" y="0px"
	 viewBox="0 0 34 34" style="enable-background:new 0 0 34 34;" xml:space="preserve">
<style type="text/css">
	.st0{clip-path:url(#SVGID_00000036239269537045408730000018041751163224048570_);}
	.st1{fill:#808080;}
	.st2{fill:#434343;}
	.st3{fill:#D4D4D4;}
	.st4{fill:#929191;}
	.st5{fill:#716E6E;}
	.st6{fill:#F69380;}
	.st7{fill:#FFC916;}
</style>
<g>
	<g>
		<g>
			<defs>
				<rect id="SVGID_1_" x="1.1" y="1.3" width="31.7" height="31.5"/>
			</defs>
			<clipPath id="SVGID_00000082346397399541804260000015185613782896263324_">
				<use xlink:href="#SVGID_1_"  style="overflow:visible;"/>
			</clipPath>
			<g id="LargeRoad" style="clip-path:url(#SVGID_00000082346397399541804260000015185613782896263324_);">
				<path id="Path_2191" class="st1" d="M24.5,22.9l5.6-3.3L24.5,22.9z"/>
				<path id="Path_2186" class="st2" d="M1.1,16.9l14.7,12.5l16.8-10.1V18L1.1,15.6V16.9z"/>
				<path id="Path_2190" class="st3" d="M5.2,13.3l11.9,13.9l12.4-7.3l-15-12.1L5.2,13.3z"/>
				<path id="Path_2192" class="st4" d="M1.2,15.6L16,27.9l16-9.4L17.3,6.2L1.2,15.6z"/>
				<path id="Path_2215" class="st5" d="M1.2,15.5L16,27.9l1.2-0.6L2.4,14.9L1.2,15.5z"/>
				<path id="Path_2216" class="st5" d="M16.8,6.5l14.7,12.3l1.3-0.8L18,5.8L16.8,6.5z"/>
				<path id="Path_2216_00000139253490370353178190000017849182459203402933_" class="st6" d="M6.6,12.4l15.1,12.2l2.9-1.7l-15-12.2
					L6.6,12.4z"/>
				<path id="Path_2216_00000016755065631787040270000013299081642723907254_" class="st6" d="M10.1,10.5l15.2,12.1l2.8-1.7
					l-15.2-12L10.1,10.5z"/>
				<path id="Path_2288" class="st7" d="M9.7,10.7l15,12.2l0.6-0.3l-15.2-12L9.7,10.7z"/>
			</g>
		</g>
	</g>
</g>
</svg>
