<?xml version="1.0" encoding="utf-8"?>
<!-- Generator: Adobe Illustrator 27.8.1, SVG Export Plug-In . SVG Version: 6.00 Build 0)  -->
<svg version="1.1" id="图层_1" xmlns="http://www.w3.org/2000/svg" xmlns:xlink="http://www.w3.org/1999/xlink" width="40px" height="40px"
	 viewBox="0 0 40 40" style="enable-background:new 0 0 40 40;" xml:space="preserve">
<style type="text/css">
	.st0{clip-path:url(#SVGID_00000078724999506469193930000010692079226445011857_);}
	.st1{fill:#808080;}
	.st2{fill:#434343;}
	.st3{fill:#D4D4D4;}
	.st4{fill:#929191;}
	.st5{fill:#716E6E;}
	.st6{fill:#F69380;}
	.st7{fill:#FFC916;}
</style>
<g>
	<g>
		<g>
			<g>
				<defs>
					<rect id="SVGID_1_" x="1.2" y="1.3" width="37.6" height="37.4"/>
				</defs>
				<clipPath id="SVGID_00000007408612593892949550000011760944273979910788_">
					<use xlink:href="#SVGID_1_"  style="overflow:visible;"/>
				</clipPath>
				<g id="LargeRoad" style="clip-path:url(#SVGID_00000007408612593892949550000011760944273979910788_);">
					<path id="Path_2191" class="st1" d="M29,26.9l6.6-3.9L29,26.9z"/>
					<path id="Path_2186" class="st2" d="M1.2,19.8l17.5,14.8l19.9-12v-1.5L1.2,18.3V19.8z"/>
					<path id="Path_2190" class="st3" d="M6,15.5l14.1,16.5l14.7-8.7L17.1,9L6,15.5z"/>
					<path id="Path_2192" class="st4" d="M1.3,18.3l17.6,14.6l19-11.2L20.4,7.1L1.3,18.3z"/>
					<path id="Path_2215" class="st5" d="M1.3,18.2l17.6,14.7l1.4-0.7L2.7,17.4L1.3,18.2z"/>
					<path id="Path_2216" class="st5" d="M19.8,7.5l17.5,14.6l1.5-0.9L21.2,6.6L19.8,7.5z"/>
					<path id="Path_2216_00000139253490370353178190000017849182459203402933_" class="st6" d="M7.7,14.5L25.6,29l3.4-2L11.3,12.5
						L7.7,14.5z"/>
					<path id="Path_2216_00000016755065631787040270000013299081642723907254_" class="st6" d="M11.9,12.2l18,14.4l3.3-2l-18-14.2
						L11.9,12.2z"/>
					<path id="Path_2288" class="st7" d="M11.4,12.5l17.8,14.5l0.7-0.4l-18-14.2L11.4,12.5z"/>
				</g>
			</g>
		</g>
	</g>
</g>
</svg>
