<?xml version="1.0"?>
<svg width="64" height="64" xmlns="http://www.w3.org/2000/svg" xmlns:svg="http://www.w3.org/2000/svg">
 <defs>
  <clipPath id="clip-LargeRoad8lanes">
   <rect height="64" id="svg_1" width="64"/>
  </clipPath>undefined</defs>
 <g class="layer">
  <title>Layer 1</title>
  <polyline fill="none" id="svg_17" opacity="0.5" points="9.03616 5.97235 8.86219 6.96549 8.69062 7.86132 8.61571 8.6791 8.46874 9.5976" stroke-linecap="round"/>
  <text fill="#ffd4aa" font-family="Sans-serif" font-size="24" font-weight="bold" id="svg_18" stroke-width="0" style="cursor: move;" text-anchor="middle" transform="matrix(0.539213 0 0 0.609831 0.963212 -1.20126)" x="20.74" xml:space="preserve" y="23.65">6</text>
  <text fill="#ffd4aa" font-family="Sans-serif" font-size="11" font-weight="normal" id="svg_19" stroke-width="0" text-anchor="middle" transform="matrix(1 0 0 1 0 0) matrix(0.774676 0 0 0.766501 3.36502 -0.988836)" x="28.24" xml:space="preserve" y="13.51">lane</text>
  <g id="svg_2">
   <g id="svg_3">
    <path d="m118.2,189.55l-6.59,-8.59s-4.62,2.21 -4.37,2.65s8.13,10.08 8.13,10.08l2.83,-4.14z" data-name="Path 2053" fill="#706428" id="svg_4" transform="rotate(-7 -1073.8 613.045)"/>
    <path d="m113.2,193.55l-6.59,-8.59s-4.62,2.21 -4.37,2.65s8.13,10.08 8.13,10.08l2.83,-4.14z" data-name="Path 2201" fill="#b47300" id="svg_5" transform="rotate(-7 -1078.8 617.045)"/>
    <path d="m107.2,196.55l-6.59,-8.59s-4.62,2.21 -4.37,2.65s8.13,10.08 8.13,10.08l2.83,-4.14z" data-name="Path 2205" fill="#61a2d3" id="svg_6" transform="rotate(-7 -1084.8 620.045)"/>
    <path d="m118.43,190.72l-6.83,-8.6s-2.31,0.51 -2.06,0.95s7.53,8.87 7.53,8.87l1.36,-1.22z" data-name="Path 2054" fill="#9a8a39" id="svg_7" transform="rotate(-7 -1074.64 614.126)"/>
    <path d="m113.43,193.72l-6.83,-8.6s-2.31,0.51 -2.06,0.95s7.53,8.87 7.53,8.87l1.36,-1.22z" data-name="Path 2202" fill="#e39c03" id="svg_8" transform="rotate(-7 -1079.64 617.126)"/>
    <path d="m107.43,196.72l-6.83,-8.6s-2.31,0.51 -2.06,0.95s7.53,8.87 7.53,8.87l1.36,-1.22z" data-name="Path 2206" fill="#7ac6ff" id="svg_9" transform="rotate(-7 -1085.64 620.126)"/>
    <g data-name="Path 2200" fill="#4d4324" id="svg_10" transform="rotate(13 54.5245 46.784)">
     <path d="m57.08,51.23c-0.98,0 -1.78,-0.97 -1.78,-2.15c0,-1.19 0.8,-2.15 1.78,-2.15c0.98,0 1.78,0.96 1.78,2.15c0,1.18 -0.8,2.15 -1.78,2.15z" id="svg_11"/>
     <path d="m57.08,47.43c-0.69,0 -1.28,0.75 -1.28,1.65c0,0.89 0.59,1.65 1.28,1.65c0.7,0 1.28,-0.76 1.28,-1.65c0,-0.9 -0.58,-1.65 -1.28,-1.65m0,-1c1.26,0 2.28,1.18 2.28,2.65c0,1.46 -1.02,2.65 -2.28,2.65c-1.26,0 -2.28,-1.19 -2.28,-2.65c0,-1.47 1.02,-2.65 2.28,-2.65z" fill="#755902" id="svg_12"/>
    </g>
    <g data-name="Path 2204" fill="#748991" id="svg_13" transform="rotate(13 49.5245 50.784)">
     <path d="m52.08,55.23c-0.98,0 -1.78,-0.97 -1.78,-2.15c0,-1.19 0.8,-2.15 1.78,-2.15c0.98,0 1.78,0.96 1.78,2.15c0,1.18 -0.8,2.15 -1.78,2.15z" id="svg_14"/>
     <path d="m52.08,51.43c-0.69,0 -1.28,0.75 -1.28,1.65c0,0.89 0.59,1.65 1.28,1.65c0.7,0 1.28,-0.76 1.28,-1.65c0,-0.9 -0.58,-1.65 -1.28,-1.65m0,-1c1.26,0 2.28,1.18 2.28,2.65c0,1.46 -1.02,2.65 -2.28,2.65c-1.26,0 -2.28,-1.19 -2.28,-2.65c0,-1.47 1.02,-2.65 2.28,-2.65z" fill="#8d5b03" id="svg_15"/>
    </g>
    <g data-name="Path 2208" fill="#4a6068" id="svg_16" transform="rotate(13 43.5245 53.784)">
     <path d="m46.08,58.23c-0.98,0 -1.78,-0.97 -1.78,-2.15c0,-1.19 0.8,-2.15 1.78,-2.15c0.98,0 1.78,0.96 1.78,2.15c0,1.18 -0.8,2.15 -1.78,2.15z" id="svg_20"/>
     <path d="m46.08,54.43c-0.69,0 -1.28,0.75 -1.28,1.65c0,0.89 0.59,1.65 1.28,1.65c0.7,0 1.28,-0.76 1.28,-1.65c0,-0.9 -0.58,-1.65 -1.28,-1.65m0,-1c1.26,0 2.28,1.18 2.28,2.65c0,1.46 -1.02,2.65 -2.28,2.65c-1.26,0 -2.28,-1.19 -2.28,-2.65c0,-1.47 1.02,-2.65 2.28,-2.65z" fill="#4e7989" id="svg_21"/>
    </g>
   </g>
   <g id="svg_22">
    <path d="m3.95,29.86l31.08,25.13l26.11,-17.05l0.18,-2.92l-57.37,-7.75l0,2.59z" data-name="Path 2186" fill="#434343" id="svg_24"/>
    <path d="m3.82,27.7l31.15,24.64l26.62,-16.88l-30.51,-24.26l-27.26,16.49z" data-name="Path 2192" fill="#929191" id="svg_25"/>
    <path d="m8.08,25.5l30.28,24.65l1.23,-0.69l-30.63,-24.4l-0.88,0.44z" data-name="Path 2294" fill="rgba(212,212,212,0.61)" id="svg_29"/>
    <path d="m12.75,22.5l30.23,24.7l1.23,-0.69l-30.58,-24.45l-0.88,0.44z" data-name="Path 2288" fill="#f5c31e" id="svg_30"/>
    <path d="m17.4,19.6l30.2,24.65l1.24,-0.69l-30.56,-24.4l-0.88,0.44z" data-name="Path 2289" fill="rgba(212,212,212,0.61)" id="svg_31"/>
    <path d="m22.08,16.86l30.2,24.65l1.24,-0.69l-30.56,-24.4l-0.88,0.44z" data-name="Path 2300" fill="rgba(212,212,212,0.61)" id="svg_32"/>
    <path d="m26.4,14.17l30.2,24.65l1.24,-0.69l-30.56,-24.4l-0.88,0.44z" data-name="Path 2300" fill="rgba(212,212,212,0.61)" id="svg_33"/>
   </g>
  </g>
  <text fill="#aaffff" font-family="Sans-serif" font-size="24" font-weight="bold" id="svg_35" stroke-width="0" text-anchor="middle" transform="matrix(1 0 0 1 0 0) matrix(0.539213 0 0 0.609831 0.963212 -1.20126)" x="15.25" xml:space="preserve" y="100.33">4U</text>
  <text fill="#ffd4aa" font-family="Sans-serif" font-size="24" font-weight="bold" id="svg_37" stroke-width="0" style="cursor: move;" text-anchor="middle" transform="matrix(1 0 0 1 0 0) matrix(0.469692 0 0 0.531205 1.10728 0.536058)" x="23.05" xml:space="preserve" y="47.47">4/2</text>
 </g>
</svg>