<?xml version="1.0"?>
<svg width="64" height="64" xmlns="http://www.w3.org/2000/svg" xmlns:svg="http://www.w3.org/2000/svg">
 <defs>
  <clipPath id="b">
   <rect height="64" id="svg_1" width="64"/>
  </clipPath>
 </defs>
 <g class="layer">
  <title>Layer 1</title>
  <g id="a">
   <path d="m3.7,33.11l29.61,25.37l26.03,-15.6l0.6,-1.94l-10.17,-5.33l-46.07,-4.55l0,2.05z" fill="#434343" id="svg_2"/>
   <path d="m735.87,-304.11l34.08,22.39l13.87,-8.21l-28.77,-25.8l-19.18,11.62z" fill="#d4d4d4" id="svg_3" transform="translate(-731.64 335.022)"/>
   <path d="m1224.4,-1129.66l29.87,25.1l10.9,-6.45l-30.01,-25.11l-10.76,6.46z" fill="#929191" id="svg_4" transform="translate(-1220.736 1160.714)"/>
   <path d="m15.72,23.94l29.87,25.1l12.46,-7.26l-31.57,-24.3l-10.76,6.46z" fill="#929191" id="svg_5" transform="matrix(1 0 0 1 0 0)"/>
   <path d="m1249.1,-1108.87l11.31,-6.69l-11.31,6.69z" fill="gray" id="svg_6" transform="translate(-1203.615 1158.607)"/>
   <path d="m3.66,31.05l29.87,25.1l3.22,-1.74l-29.98,-24.96l-3.11,1.6z" fill="#716e6e" id="svg_7"/>
   <path d="m43.84,50.35l-30.11,-25.16l0.23,-1.24l35.65,21.86l0.11,1.02l-5.88,3.52z" fill="#7f7f7f" id="svg_9"/>
   <path d="m13.8,23.85l29.88,25.05l6.06,-3.4l-30.58,-24.98l-5.36,3.33z" fill="#bfbfbf" id="svg_8"/>
   <path d="m26.47,17.55l29.87,25.1l3.22,-1.74l-29.98,-25.16l-3.11,1.8z" fill="#716e6e" id="svg_10"/>
  </g>
 </g>
</svg>