<?xml version="1.0"?>
<svg width="64" height="64" xmlns="http://www.w3.org/2000/svg" xmlns:svg="http://www.w3.org/2000/svg">
 <defs>
  <clipPath id="clip-LargeRoad8lanes">
   <rect height="64" id="svg_1" width="64"/>
  </clipPath>undefined</defs>
 <g class="layer">
  <title>Layer 1</title>
  <polyline fill="none" id="svg_17" opacity="0.5" points="9.03616 5.97235 8.86219 6.96549 8.69062 7.86132 8.61571 8.6791 8.46874 9.5976" stroke-linecap="round"/>
  <text fill="#ffd4aa" font-family="Sans-serif" font-size="24" font-weight="bold" id="svg_18" stroke-width="0" text-anchor="middle" transform="matrix(1 0 0 1 0 0) matrix(0.539213 0 0 0.609831 0.963212 -1.20126)" x="22.51" xml:space="preserve" y="22.35">6+3</text>
  <text fill="#ffd4aa" font-family="Sans-serif" font-size="11" font-weight="normal" id="svg_19" stroke-width="0" text-anchor="middle" transform="matrix(1 0 0 1 0 0) matrix(0.774676 0 0 0.766501 3.36502 -0.988836)" x="40.95" xml:space="preserve" y="11.84">lane</text>
  <g id="svg_2">
   <g id="svg_3">
    <path d="m117.76,188.7l-6.59,-8.59s-4.62,2.21 -4.37,2.65s8.13,10.08 8.13,10.08l2.83,-4.14z" data-name="Path 2053" fill="#706428" id="svg_4" transform="rotate(-7 -1074.24 612.197)"/>
    <path d="m112.76,192.7l-6.59,-8.59s-4.62,2.21 -4.37,2.65s8.13,10.08 8.13,10.08l2.83,-4.14z" data-name="Path 2201" fill="#b47300" id="svg_5" transform="rotate(-7 -1079.24 616.197)"/>
    <path d="m106.76,195.7l-6.59,-8.59s-4.62,2.21 -4.37,2.65s8.13,10.08 8.13,10.08l2.83,-4.14z" data-name="Path 2205" fill="#61a2d3" id="svg_6" transform="rotate(-7 -1085.24 619.197)"/>
    <path d="m117.99,189.87l-6.83,-8.6s-2.31,0.51 -2.06,0.95s7.53,8.87 7.53,8.87l1.36,-1.22z" data-name="Path 2054" fill="#9a8a39" id="svg_7" transform="rotate(-7 -1075.08 613.278)"/>
    <path d="m112.99,192.87l-6.83,-8.6s-2.31,0.51 -2.06,0.95s7.53,8.87 7.53,8.87l1.36,-1.22z" data-name="Path 2202" fill="#e39c03" id="svg_8" transform="rotate(-7 -1080.08 616.278)"/>
    <path d="m106.99,195.87l-6.83,-8.6s-2.31,0.51 -2.06,0.95s7.53,8.87 7.53,8.87l1.36,-1.22z" data-name="Path 2206" fill="#7ac6ff" id="svg_9" transform="rotate(-7 -1086.08 619.278)"/>
    <g data-name="Path 2200" fill="#4d4324" id="svg_10" transform="rotate(13 54.0836 45.9371)">
     <path d="m56.64,50.39c-0.98,0 -1.78,-0.97 -1.78,-2.15c0,-1.19 0.8,-2.15 1.78,-2.15c0.98,0 1.78,0.96 1.78,2.15c0,1.18 -0.8,2.15 -1.78,2.15z" id="svg_11"/>
     <path d="m56.64,46.59c-0.69,0 -1.28,0.75 -1.28,1.65c0,0.89 0.59,1.65 1.28,1.65c0.7,0 1.28,-0.76 1.28,-1.65c0,-0.9 -0.58,-1.65 -1.28,-1.65m0,-1c1.26,0 2.28,1.18 2.28,2.65c0,1.46 -1.02,2.65 -2.28,2.65c-1.26,0 -2.28,-1.19 -2.28,-2.65c0,-1.47 1.02,-2.65 2.28,-2.65z" fill="#755902" id="svg_12"/>
    </g>
    <g data-name="Path 2204" fill="#748991" id="svg_13" transform="rotate(13 49.0836 49.9371)">
     <path d="m51.64,54.39c-0.98,0 -1.78,-0.97 -1.78,-2.15c0,-1.19 0.8,-2.15 1.78,-2.15c0.98,0 1.78,0.96 1.78,2.15c0,1.18 -0.8,2.15 -1.78,2.15z" id="svg_14"/>
     <path d="m51.64,50.59c-0.69,0 -1.28,0.75 -1.28,1.65c0,0.89 0.59,1.65 1.28,1.65c0.7,0 1.28,-0.76 1.28,-1.65c0,-0.9 -0.58,-1.65 -1.28,-1.65m0,-1c1.26,0 2.28,1.18 2.28,2.65c0,1.46 -1.02,2.65 -2.28,2.65c-1.26,0 -2.28,-1.19 -2.28,-2.65c0,-1.47 1.02,-2.65 2.28,-2.65z" fill="#8d5b03" id="svg_15"/>
    </g>
    <g data-name="Path 2208" fill="#4a6068" id="svg_16" transform="rotate(13 43.0836 52.9371)">
     <path d="m45.64,57.39c-0.98,0 -1.78,-0.97 -1.78,-2.15c0,-1.19 0.8,-2.15 1.78,-2.15c0.98,0 1.78,0.96 1.78,2.15c0,1.18 -0.8,2.15 -1.78,2.15z" id="svg_20"/>
     <path d="m45.64,53.59c-0.69,0 -1.28,0.75 -1.28,1.65c0,0.89 0.59,1.65 1.28,1.65c0.7,0 1.28,-0.76 1.28,-1.65c0,-0.9 -0.58,-1.65 -1.28,-1.65m0,-1c1.26,0 2.28,1.18 2.28,2.65c0,1.46 -1.02,2.65 -2.28,2.65c-1.26,0 -2.28,-1.19 -2.28,-2.65c0,-1.47 1.02,-2.65 2.28,-2.65z" fill="#4e7989" id="svg_21"/>
    </g>
   </g>
   <g id="svg_22">
    <path d="m-1.24,32.38l29.45,24.93l37.18,-22.24l0.13,-1.69l-66.76,-3.07l0,2.08z" data-name="Path 2186" fill="#434343" id="svg_23"/>
    <path d="m-1.38,30.52l29.74,24.65l37.22,-21.71l-30.53,-24.5l-36.54,21.35l0.11,0.21z" data-name="Path 2192" fill="#929191" id="svg_25"/>
    <path d="m8.96,24.08l30.29,24.65l3.79,-2.35l-29.94,-24.66l-4.14,2.36z" data-name="Path 2287" fill="#3f3f3f" id="svg_27"/>
    <path d="m15.83,19.9l30.28,24.65l1.23,-0.69l-30.63,-24.4l-0.88,0.44z" data-name="Path 2294" fill="rgba(212,212,212,0.61)" id="svg_29"/>
    <path d="m27.16,13.37l30.2,24.65l1.24,-0.69l-30.56,-24.4l-0.88,0.44z" data-name="Path 2289" fill="rgba(212,212,212,0.61)" id="svg_31"/>
    <path d="m1.29,28.59l30.23,24.7l1.23,-0.69l-30.58,-24.45l-0.88,0.44z" data-name="Path 2288" fill="#f5c31e" id="svg_24"/>
    <path d="m4.99,26.44l30.28,24.65l1.23,-0.69l-30.63,-24.4l-0.88,0.44z" data-name="Path 2294" fill="rgba(212,212,212,0.61)" id="svg_26"/>
    <path d="m23.67,15.5l30.23,24.64l1.36,-0.69l-30.45,-24.52l-1.14,0.57z" data-name="Path 2288" fill="#f5c31e" id="svg_28"/>
    <path d="m19.68,17.87l30.28,24.65l1.23,-0.69l-30.63,-24.4l-0.88,0.44z" data-name="Path 2294" fill="rgba(212,212,212,0.61)" id="svg_30"/>
    <path d="m31.19,11.22l30.2,24.65l1.24,-0.69l-30.56,-24.4l-0.88,0.44z" data-name="Path 2289" fill="rgba(212,212,212,0.61)" id="svg_32"/>
   </g>
  </g>
  <text fill="#aaffff" font-family="Sans-serif" font-size="24" font-weight="bold" id="svg_35" stroke-width="0" text-anchor="middle" transform="matrix(1 0 0 1 0 0) matrix(0.539213 0 0 0.609831 0.963212 -1.20126)" x="15.42" xml:space="preserve" y="100.33">5U</text>
  <text fill="#ffd4aa" font-family="Sans-serif" font-size="24" font-weight="bold" id="svg_37" stroke-width="0" text-anchor="middle" transform="matrix(0.469692 0 0 0.531205 1.10728 0.536058)" x="18.69" xml:space="preserve" y="45.18">SLT</text>
 </g>
</svg>