<?xml version="1.0"?>
<svg width="64" height="64" xmlns="http://www.w3.org/2000/svg" xmlns:svg="http://www.w3.org/2000/svg">
 <defs>
  <clipPath id="b">
   <rect height="64" id="svg_1" width="64"/>
  </clipPath>
 </defs>
 <g class="layer">
  <title>Layer 1</title>
  <g id="a">
   <g id="svg_2" transform="translate(-3.277 -2.724)">
    <path d="m733.48,-300.81l5.31,4.16l26.11,-16.07l0,-1.84l-31.42,11.44l0,2.31z" fill="#61544c" id="svg_3" transform="translate(-726.866 331.521)"/>
    <path d="m733.48,-300.81l5.31,4.16l26.11,-16.07l0,-1.84l-31.42,11.44l0,2.31z" fill="#61544c" id="svg_4" transform="translate(-700.904 355.254)"/>
    <path d="m733.48,-300.81l5.31,4.16l26.11,-16.07l0,-1.84l-31.42,11.44l0,2.31z" fill="#61544c" id="svg_5" transform="translate(-714.817 343.237)"/>
    <path d="m1212.37,-1120.46l5.39,4.25l26.09,-15.65l-5.76,-4.27l-1.18,0.72l-24.54,14.95z" fill="#a1886c" id="svg_6" transform="translate(-1205.82 1148.786)"/>
    <path d="m1212.37,-1120.46l5.39,4.25l26.09,-15.65l-5.76,-4.27l-1.18,0.72l-24.54,14.95z" fill="#887056" id="svg_7" transform="translate(-1179.859 1172.519)"/>
    <path d="m1212.37,-1120.46l5.39,4.25l26.09,-15.65l-5.76,-4.27l-1.18,0.72l-24.54,14.95z" fill="#987e61" id="svg_8" transform="translate(-1193.771 1160.503)"/>
    <path d="m785.67,-285.84l-33.14,-28.76l33.14,28.76z" fill="#e9bc29" id="svg_9" transform="translate(-735.461 333.338)"/>
    <path d="m785.67,-285.84l-33.14,-28.76l33.14,28.76z" fill="#e9bc29" id="svg_10" transform="translate(-724.148 325.436)"/>
    <path d="m734.45,-301.92l32.46,27.82l1.96,-1.76l0,-3.14l-34.42,-25.8l0,2.88z" fill="gray" id="svg_11" transform="translate(-723.438 328.178)"/>
    <path d="m1224.47,-1130.62l32.53,27.64l2.52,-1.78l-32.05,-27.83l-3,1.97z" fill="#d8d5d5" id="svg_12" transform="translate(-1213.437 1153.735)"/>
    <path d="m43.55,54.08l0,-3.42l2.52,-1.81l0,3.32l-2.52,1.91z" fill="#575656" id="svg_13"/>
    <path d="m734.45,-301.92l32.46,27.82l1.96,-1.76l0,-3.14l-34.42,-25.8l0,2.88z" fill="gray" id="svg_14" transform="translate(-710.438 319.698)"/>
    <path d="m1224.47,-1130.62l32.53,27.64l2.52,-1.78l-32.05,-27.83l-3,1.97z" fill="#d8d5d5" id="svg_15" transform="translate(-1200.437 1145.255)"/>
    <path d="m43.55,54.08l0,-3.42l2.52,-1.81l0,3.32l-2.52,1.91z" fill="#575656" id="svg_16" transform="translate(13 -8.48)"/>
   </g>
   <path d="m781.89,-289.12l-29.36,-25.47l29.36,25.47z" fill="#e9bc29" id="svg_17" transform="translate(-736.661 332.436)"/>
   <path d="m781.89,-289.12l-29.36,-25.47l29.36,25.47z" fill="#e9bc29" id="svg_18" transform="translate(-726.638 325.436)"/>
   <path d="m15735.84,2434.14l1.4,9.76l2.8,-1.57l9.84,9.07l4.5,-2.63l-9.66,-8.78l3.22,-1.86l-12.1,-3.99z" fill="#575656" id="svg_19" transform="translate(-15712.141 -2412.142)"/>
   <path d="m15735.84,2434.14l1.4,9.76l2.8,-1.57l9.84,9.07l4.5,-2.63l-9.66,-8.78l3.22,-1.86l-12.1,-3.99z" fill="#fff" id="svg_20" transform="translate(-15712.141 -2414.047)"/>
  </g>
  <text fill="#aaffff" font-family="Sans-serif" font-size="24" id="svg_21" stroke="#000000" stroke-width="0" text-anchor="middle" transform="matrix(0.504839 0 0 0.504839 23.141 -0.697475)" x="-22.73" xml:space="preserve" y="121.12">thin</text>
 </g>
</svg>