<?xml version="1.0"?>
<svg width="64" height="64" xmlns="http://www.w3.org/2000/svg" xmlns:svg="http://www.w3.org/2000/svg">
 <defs>
  <clipPath id="clip-LargeRoad8lanes">
   <rect height="64" id="svg_1" width="64" x="-0.24" y="2.69"/>
  </clipPath>undefinedundefinedundefinedundefined</defs>
 <g class="layer">
  <title>Layer 1</title>
  <polyline fill="none" id="svg_17" opacity="0.5" points="9.03616 5.97235 8.86219 6.96549 8.69062 7.86132 8.61571 8.6791 8.46874 9.5976" stroke-linecap="round"/>
  <text fill="#ffd4aa" font-family="Sans-serif" font-size="24" font-weight="bold" id="svg_18" stroke-width="0" text-anchor="middle" transform="matrix(1 0 0 1 0 0) matrix(0.539213 0 0 0.609831 0.963212 -1.20126)" x="15.16" xml:space="preserve" y="24.45">6</text>
  <text fill="#aaffff" font-family="Sans-serif" font-size="24" font-weight="bold" id="svg_35" stroke-width="0" text-anchor="middle" transform="matrix(0.539213 0 0 0.609831 0.963212 -1.20126)" x="15.42" xml:space="preserve" y="100.33">3U</text>
  <path d="m1122.84,-1056.42l11.31,-6.69l-11.31,6.69z" data-name="Path 2191" fill="gray" id="svg_53" transform="translate(-1201.93 1152.9)"/>
  <path d="m1249.15,-1111.44l11.31,-6.69l-11.31,6.69z" data-name="Path 2191" fill="gray" id="svg_56" transform="translate(-1201.93 1152.9)"/>
  <g id="svg_67">
   <g clip-path="url(#clip-LargeRoad8lanes)" id="svg_2">
    <path d="m117.86,188.37l-6.59,-8.59s-4.62,2.21 -4.37,2.65s8.13,10.08 8.13,10.08l2.83,-4.14z" data-name="Path 2053" fill="#706428" id="svg_3" transform="rotate(-7 112.37510681152344,186.1449966430664)"/>
    <path d="m112.86,192.37l-6.59,-8.59s-4.62,2.21 -4.37,2.65s8.13,10.08 8.13,10.08l2.83,-4.14z" data-name="Path 2201" fill="#b47300" id="svg_4" transform="rotate(-7 107.37510681152344,190.1449966430664)"/>
    <path d="m106.86,195.37l-6.59,-8.59s-4.62,2.21 -4.37,2.65s8.13,10.08 8.13,10.08l2.83,-4.14z" data-name="Path 2205" fill="#61a2d3" id="svg_5" transform="rotate(-7 101.37510681152344,193.1449966430664)"/>
    <path d="m118.09,189.54l-6.83,-8.6s-2.31,0.51 -2.06,0.95s7.53,8.87 7.53,8.87l1.36,-1.22z" data-name="Path 2054" fill="#9a8a39" id="svg_6" transform="rotate(-7 113.63553619384766,185.8499984741211)"/>
    <path d="m113.09,192.54l-6.83,-8.6s-2.31,0.51 -2.06,0.95s7.53,8.87 7.53,8.87l1.36,-1.22z" data-name="Path 2202" fill="#e39c03" id="svg_7" transform="rotate(-7 108.63553619384766,188.8499984741211)"/>
    <path d="m107.09,195.54l-6.83,-8.6s-2.31,0.51 -2.06,0.95s7.53,8.87 7.53,8.87l1.36,-1.22z" data-name="Path 2206" fill="#7ac6ff" id="svg_8" transform="rotate(-7 102.63553619384766,191.8499984741211)"/>
    <path d="m1185.93,-423.24a4.27,4.27 0 0 1 2.52,-2.36c1.76,-0.49 2.24,0 2.24,0l-2.01,-1.97l-5.5,1.62l2.75,2.71z" data-name="Path 2055" fill="rgba(59,59,59,0.61)" id="svg_9" transform="translate(-1134.99 470.025)"/>
    <path d="m1185.93,-423.24a4.27,4.27 0 0 1 2.52,-2.36c1.76,-0.49 2.24,0 2.24,0l-2.01,-1.97l-5.5,1.62l2.75,2.71z" data-name="Path 2203" fill="rgba(59,59,59,0.61)" id="svg_10" transform="translate(-1139.99 474.025)"/>
    <path d="m1185.93,-423.24a4.27,4.27 0 0 1 2.52,-2.36c1.76,-0.49 2.24,0 2.24,0l-2.01,-1.97l-5.5,1.62l2.75,2.71z" data-name="Path 2207" fill="rgba(59,59,59,0.61)" id="svg_11" transform="translate(-1145.99 477.025)"/>
    <g data-name="Path 2200" fill="#4d4324" id="svg_12" transform="rotate(13 54.1864 45.612)">
     <path d="m56.74,50.06c-0.98,0 -1.78,-0.97 -1.78,-2.15c0,-1.19 0.8,-2.15 1.78,-2.15c0.98,0 1.78,0.96 1.78,2.15c0,1.18 -0.8,2.15 -1.78,2.15z" id="svg_13"/>
     <path d="m56.74,46.26c-0.69,0 -1.28,0.75 -1.28,1.65c0,0.89 0.59,1.65 1.28,1.65c0.7,0 1.28,-0.76 1.28,-1.65c0,-0.9 -0.58,-1.65 -1.28,-1.65m0,-1c1.26,0 2.28,1.18 2.28,2.65c0,1.46 -1.02,2.65 -2.28,2.65c-1.26,0 -2.28,-1.19 -2.28,-2.65c0,-1.47 1.02,-2.65 2.28,-2.65z" fill="#755902" id="svg_14"/>
    </g>
    <g data-name="Path 2204" fill="#748991" id="svg_15" transform="rotate(13 49.1864 49.612)">
     <path d="m51.74,54.06c-0.98,0 -1.78,-0.97 -1.78,-2.15c0,-1.19 0.8,-2.15 1.78,-2.15c0.98,0 1.78,0.96 1.78,2.15c0,1.18 -0.8,2.15 -1.78,2.15z" id="svg_16"/>
     <path d="m51.74,50.26c-0.69,0 -1.28,0.75 -1.28,1.65c0,0.89 0.59,1.65 1.28,1.65c0.7,0 1.28,-0.76 1.28,-1.65c0,-0.9 -0.58,-1.65 -1.28,-1.65m0,-1c1.26,0 2.28,1.18 2.28,2.65c0,1.46 -1.02,2.65 -2.28,2.65c-1.26,0 -2.28,-1.19 -2.28,-2.65c0,-1.47 1.02,-2.65 2.28,-2.65z" fill="#8d5b03" id="svg_20"/>
    </g>
    <g data-name="Path 2208" fill="#4a6068" id="svg_21" transform="rotate(13 43.1864 52.612)">
     <path d="m45.74,57.06c-0.98,0 -1.78,-0.97 -1.78,-2.15c0,-1.19 0.8,-2.15 1.78,-2.15c0.98,0 1.78,0.96 1.78,2.15c0,1.18 -0.8,2.15 -1.78,2.15z" id="svg_22"/>
     <path d="m45.74,53.26c-0.69,0 -1.28,0.75 -1.28,1.65c0,0.89 0.59,1.65 1.28,1.65c0.7,0 1.28,-0.76 1.28,-1.65c0,-0.9 -0.58,-1.65 -1.28,-1.65m0,-1c1.26,0 2.28,1.18 2.28,2.65c0,1.46 -1.02,2.65 -2.28,2.65c-1.26,0 -2.28,-1.19 -2.28,-2.65c0,-1.47 1.02,-2.65 2.28,-2.65z" fill="#4e7989" id="svg_23"/>
    </g>
    <path d="m1249.59,-1108.44l11.31,-6.69l-11.31,6.69z" data-name="Path 2191" fill="gray" id="svg_24" transform="translate(-1201.93 1152.9)"/>
    <path d="m47.66,44.46l11.31,-6.69l-11.31,6.69z" data-name="Path 2191" fill="gray" id="svg_30"/>
   </g>
   <path d="m3.74,29.37l29.71,25.31l27.45,-16.64l0,-2.08l-57.16,-9.18l0,2.59z" data-name="Path 2186" fill="#434343" id="svg_57"/>
   <path d="m3.72,26.6l29.8,25.49c9.64,-5.59 17.16,-9.9 26.8,-15.49l-30.4,-24.68l-26.2,14.69l0,-0.01z" data-name="Path 2192" fill="#929191" id="svg_59"/>
   <path d="m3.52,26.84l30.2,25.23l2.34,-1.25l-30.2,-25.24l-2.34,1.26z" data-name="Path 2215" fill="#716e6e" id="svg_60"/>
   <path d="m28.73,12.65l30.14,24.78l2.12,-1.36l-29.9,-24.89l-2.36,1.46l0,0.01z" data-name="Path 2216" fill="#716e6e" id="svg_61"/>
   <path d="m8.62,24.04l30.41,24.87l1.23,-0.7l-30.76,-24.61l-0.88,0.44z" data-name="Path 2281" fill="rgba(212,212,212,0.61)" id="svg_62"/>
   <path d="m13.05,21.46l30.29,24.65l1.23,-0.69l-30.64,-24.4l-0.88,0.44z" data-name="Path 2287" fill="rgba(212,212,212,0.61)" id="svg_63"/>
   <path d="m20.51,16.98l30.28,24.65l1.23,-0.69l-30.63,-24.4l-0.88,0.44z" data-name="Path 2294" fill="rgba(212,212,212,0.61)" id="svg_64"/>
   <path d="m24.67,14.88l30.2,24.65l1.23,-0.69l-30.56,-24.4l-0.87,0.44z" data-name="Path 2289" fill="rgba(212,212,212,0.61)" id="svg_66"/>
   <path d="m17.05,19.29l30.28,24.65l1.23,-0.69l-30.63,-24.4l-0.88,0.44z" data-name="Path 2294" fill="#f2c32a" id="svg_25"/>
  </g>
  <text fill="#ffd4aa" font-family="Sans-serif" font-size="11" font-weight="normal" id="svg_19" stroke-width="0" text-anchor="middle" transform="matrix(0.774676 0 0 0.766501 3.36502 -0.988836)" x="29.66" xml:space="preserve" y="13.51">lane</text>
 </g>
</svg>